<?xml version="1.0" encoding="utf-8"?>
<!-- Generator: Adobe Illustrator 16.0.0, SVG Export Plug-In . SVG Version: 6.00 Build 0)  -->
<!DOCTYPE svg PUBLIC "-//W3C//DTD SVG 1.1//EN" "http://www.w3.org/Graphics/SVG/1.1/DTD/svg11.dtd">
<svg version="1.1" id="Layer_1" xmlns="http://www.w3.org/2000/svg" xmlns:xlink="http://www.w3.org/1999/xlink" x="0px" y="0px"
	 width="500px" height="500px" viewBox="0 0 500 500" enable-background="new 0 0 500 500" xml:space="preserve">
<g id="Layer_2">
</g>
<radialGradient id="BG_1_" cx="250" cy="250.0005" r="250.0002" gradientUnits="userSpaceOnUse">
	<stop  offset="0" style="stop-color:#000000"/>
	<stop  offset="0.286" style="stop-color:#020202"/>
	<stop  offset="0.4236" style="stop-color:#0A0A0A"/>
	<stop  offset="0.5296" style="stop-color:#171717"/>
	<stop  offset="0.6193" style="stop-color:#292929"/>
	<stop  offset="0.6988" style="stop-color:#414141"/>
	<stop  offset="0.7711" style="stop-color:#5F5F5F"/>
	<stop  offset="0.838" style="stop-color:#828282"/>
	<stop  offset="0.9005" style="stop-color:#ABABAB"/>
	<stop  offset="0.9574" style="stop-color:#D8D8D8"/>
	<stop  offset="1" style="stop-color:#FFFFFF"/>
</radialGradient>
<rect id="BG" opacity="0.5" fill="url(#BG_1_)" width="500" height="500.001"/>
<rect x="50" y="99.917" stroke="#000000" stroke-miterlimit="10" width="399.918" height="172.458"/>
<rect x="50" y="287" display="none" fill="none" width="196.75" height="132.875"/>
<rect x="50" y="278" fill="#010202" stroke="#000000" stroke-miterlimit="10" width="196.75" height="132.875"/>
<rect x="253" y="278" fill="#010202" stroke="#000000" stroke-miterlimit="10" width="196.75" height="132.875"/>
<rect x="50.25" y="85.649" fill="#010202" stroke="#000000" stroke-miterlimit="10" width="59.908" height="8.359"/>
<rect x="118.053" y="85.649" fill="#010202" stroke="#000000" stroke-miterlimit="10" width="59.908" height="8.359"/>
<rect x="186.088" y="85.649" fill="#010202" stroke="#000000" stroke-miterlimit="10" width="59.908" height="8.359"/>
<rect x="253.658" y="85.649" fill="#010202" stroke="#000000" stroke-miterlimit="10" width="59.908" height="8.359"/>
<rect x="321.926" y="85.766" fill="#010202" stroke="#000000" stroke-miterlimit="10" width="59.908" height="8.359"/>
<rect x="389.961" y="85.649" fill="#010202" stroke="#000000" stroke-miterlimit="10" width="59.908" height="8.359"/>
<rect y="427.336" fill="#020304" width="501.333" height="72.665"/>
<rect x="49" y="15.002" fill="#020304" width="58.333" height="58.333"/>
<path fill="#020304" d="M450.334,44.836c0,5.615-4.553,10.167-10.167,10.167H326.833c-5.614,0-10.167-4.552-10.167-10.167l0,0
	c0-5.615,4.553-10.167,10.167-10.167h113.334C445.781,34.669,450.334,39.221,450.334,44.836L450.334,44.836z"/>
</svg>
