<?xml version="1.0" encoding="utf-8"?>
<!-- Generator: Adobe Illustrator 16.0.0, SVG Export Plug-In . SVG Version: 6.00 Build 0)  -->
<!DOCTYPE svg PUBLIC "-//W3C//DTD SVG 1.1//EN" "http://www.w3.org/Graphics/SVG/1.1/DTD/svg11.dtd">
<svg version="1.1" xmlns="http://www.w3.org/2000/svg" xmlns:xlink="http://www.w3.org/1999/xlink" x="0px" y="0px" width="1000px"
	 height="1000px" viewBox="0 0 1000 1000" enable-background="new 0 0 1000 1000" xml:space="preserve">
<g id="Layer_1">
	<path fill="#894D14" stroke="#562C0F" stroke-width="5" stroke-miterlimit="10" d="M-333.388-2834.715
		c-115.914-91.982-284.449-72.581-376.431,43.333s-72.581,284.449,43.333,376.432c115.915,91.982,515.012,8.557,376.431-43.333
		C-725.443-2621.31-217.472-2742.732-333.388-2834.715z"/>
	<linearGradient id="SVGID_1_" gradientUnits="userSpaceOnUse" x1="-779.4478" y1="-2633.5664" x2="-272.7495" y2="-2633.5664">
		<stop  offset="0" style="stop-color:#FFFFFF;stop-opacity:0"/>
		<stop  offset="0.0236" style="stop-color:#EBEBEB;stop-opacity:0.0578"/>
		<stop  offset="0.07" style="stop-color:#CACACA;stop-opacity:0.1717"/>
		<stop  offset="0.12" style="stop-color:#AFAEAE;stop-opacity:0.2941"/>
		<stop  offset="0.1739" style="stop-color:#999999;stop-opacity:0.4261"/>
		<stop  offset="0.2334" style="stop-color:#8B8A8A;stop-opacity:0.5721"/>
		<stop  offset="0.3032" style="stop-color:#828181;stop-opacity:0.7431"/>
		<stop  offset="0.408" style="stop-color:#7F7E7E"/>
		<stop  offset="1" style="stop-color:#000000"/>
	</linearGradient>
	<path opacity="0.5" fill="url(#SVGID_1_)" d="M-334.084-2835.02c-115.914-91.982-284.449-72.581-376.431,43.333
		s-72.581,284.449,43.333,376.432c115.915,91.982,515.012,8.557,376.431-43.333C-726.139-2621.615-218.168-2743.037-334.084-2835.02
		z"/>
	<circle fill="#E52420" cx="-412.043" cy="-2802.937" r="50.543"/>
	<circle fill="#C04793" cx="-521.087" cy="-2826.633" r="47.826"/>
	<circle fill="#2B4B9B" cx="-620.543" cy="-2783.155" r="43.478"/>
	<circle fill="#6AC3C8" cx="-690.652" cy="-2706.633" r="39.674"/>
	<circle fill="#66B32E" cx="-709.131" cy="-2614.241" r="36.413"/>
	<circle fill="#010202" cx="-689.043" cy="-2527.285" r="28.804"/>
	<circle fill="#FFFFFF" cx="-622.174" cy="-2464.785" r="21.739"/>
	<text transform="matrix(1 0 0 1 112.332 -2493.6582)" font-family="'MyriadPro-Regular'" font-size="291.5666">R</text>
	<text transform="matrix(1 0 0 1 413.7021 -2493.0576)" font-family="'MyriadPro-Regular'" font-size="291.5666"> B </text>
	<path fill="#894D14" stroke="#562C0F" stroke-width="5" stroke-miterlimit="10" d="M427.18-2618.89
		c-56.777-22.531-121.07,5.231-143.602,62.01c-22.531,56.777,5.231,121.07,62.01,143.602
		c56.777,22.53,204.557-58.026,143.602-62.009C297.682-2487.804,483.958-2596.359,427.18-2618.89z"/>
	
		<linearGradient id="SVGID_2_" gradientUnits="userSpaceOnUse" x1="741.4141" y1="-2616.0068" x2="950.582" y2="-2616.0068" gradientTransform="matrix(0.9574 -0.2888 0.2888 0.9574 320.5491 232.4714)">
		<stop  offset="0" style="stop-color:#FFFFFF;stop-opacity:0"/>
		<stop  offset="0.0236" style="stop-color:#EBEBEB;stop-opacity:0.0578"/>
		<stop  offset="0.07" style="stop-color:#CACACA;stop-opacity:0.1717"/>
		<stop  offset="0.12" style="stop-color:#AFAEAE;stop-opacity:0.2941"/>
		<stop  offset="0.1739" style="stop-color:#999999;stop-opacity:0.4261"/>
		<stop  offset="0.2334" style="stop-color:#8B8A8A;stop-opacity:0.5721"/>
		<stop  offset="0.3032" style="stop-color:#828181;stop-opacity:0.7431"/>
		<stop  offset="0.408" style="stop-color:#7F7E7E"/>
		<stop  offset="1" style="stop-color:#000000"/>
	</linearGradient>
	<path opacity="0.5" fill="url(#SVGID_2_)" d="M426.868-2618.927c-56.778-22.531-121.07,5.232-143.602,62.009
		c-22.531,56.778,5.231,121.07,62.009,143.602c56.779,22.531,204.558-58.025,143.603-62.009
		C297.37-2487.842,483.646-2596.396,426.868-2618.927z"/>
	<circle fill="#E52420" cx="399.883" cy="-2596.952" r="20.864"/>
	<circle fill="#C04793" cx="353.963" cy="-2593.315" r="19.743"/>
	<circle fill="#2B4B9B" cx="319.842" cy="-2564.274" r="17.948"/>
	<circle fill="#6AC3C8" cx="301.258" cy="-2525.672" r="16.378"/>
	<circle fill="#66B32E" cx="304.971" cy="-2486.955" r="15.031"/>
	<circle fill="#010202" cx="323.278" cy="-2454.984" r="11.891"/>
	<circle fill="#FFFFFF" cx="357.158" cy="-2438.257" r="8.974"/>
	<path fill="#4C2F12" d="M-675.121-1219.816c-105.096-50.983-97.846-293.104-11.428-471.244
		c86.419-178.139,241.67-281.22,346.766-230.236c83.51,40.513-199.453,522.475-62.427,597.134
		c111.646,60.83,35.976-170.384,49.257-181.725c90.836-77.558,156.42,259.086,18.991,315.976
		c-44.504,18.423-99.284,17.77-153.601,21.071C-579.181-1163.271-652.58-1208.881-675.121-1219.816z"/>
	<linearGradient id="SVGID_3_" gradientUnits="userSpaceOnUse" x1="-753.1533" y1="-1551.8521" x2="-255.5405" y2="-1551.8521">
		<stop  offset="0" style="stop-color:#FFFFFF;stop-opacity:0"/>
		<stop  offset="1" style="stop-color:#000000"/>
	</linearGradient>
	<path opacity="0.8" fill="url(#SVGID_3_)" stroke="#302011" stroke-width="7" stroke-miterlimit="10" d="M-675.613-1220.316
		c-105.096-50.983-97.846-293.104-11.428-471.244c86.419-178.139,241.67-281.22,346.766-230.236
		c83.51,40.513-199.453,522.475-62.427,597.134c111.646,60.83,35.976-170.384,49.257-181.725
		c90.836-77.558,156.42,259.086,18.991,315.976c-44.504,18.423-99.284,17.77-153.601,21.071
		C-579.673-1163.771-653.072-1209.381-675.613-1220.316z"/>
	<circle fill="#CC1417" cx="-455.388" cy="-1823.421" r="56.997"/>
	<circle fill="#833D8F" cx="-560.877" cy="-1711.409" r="50.998"/>
	<circle fill="#263689" cx="-639.362" cy="-1585.406" r="47.997"/>
	<circle fill="#009B97" cx="-686.846" cy="-1453.409" r="43.498"/>
	<circle fill="#097B35" cx="-666.33" cy="-1334.918" r="40.498"/>
	<circle fill="#010202" cx="-585.568" cy="-1250.681" r="36.748"/>
	<circle fill="#FFFFFF" cx="-477.061" cy="-1218.197" r="29.249"/>
	<text transform="matrix(1 0 0 1 155.6572 -1606.751)" font-family="'MyriadPro-Regular'" font-size="291.5666">R</text>
	<path fill="#4C2F12" d="M267.045-1511.211c-33.995-23.888-17.656-108.484,22.833-166.108
		c40.489-57.623,100.871-84.972,134.867-61.084c27.013,18.981-99.793,172.082-55.935,206.102
		c35.734,27.718,22.337-57.773,27.646-60.999c36.312-22.057,40.16,99.877-11.332,112.023c-16.676,3.933-35.871,0.583-55.13-1.353
		C297.51-1485.893,274.336-1506.087,267.045-1511.211z"/>
	
		<linearGradient id="SVGID_4_" gradientUnits="userSpaceOnUse" x1="91.8457" y1="-1598.4512" x2="268.8428" y2="-1598.4512" gradientTransform="matrix(0.9871 0.1602 -0.1602 0.9871 -88.167 -69.1239)">
		<stop  offset="0" style="stop-color:#FFFFFF;stop-opacity:0"/>
		<stop  offset="1" style="stop-color:#000000"/>
	</linearGradient>
	<path opacity="0.8" fill="url(#SVGID_4_)" stroke="#302011" stroke-width="7" stroke-miterlimit="10" d="M266.899-1511.414
		c-33.993-23.889-17.655-108.485,22.834-166.108s100.871-84.972,134.867-61.084c27.013,18.982-99.792,172.082-55.935,206.102
		c35.734,27.717,22.337-57.773,27.646-60.998c36.311-22.057,40.161,99.876-11.332,112.021c-16.675,3.933-35.872,0.584-55.13-1.351
		C297.365-1486.097,274.192-1506.291,266.899-1511.414z"/>
	<circle fill="#CC1417" cx="378.58" cy="-1710.624" r="20.273"/>
	<circle fill="#833D8F" cx="335.161" cy="-1677.304" r="18.14"/>
	<circle fill="#263689" cx="300.426" cy="-1637.535" r="17.073"/>
	<circle fill="#009B97" cx="276.235" cy="-1593.895" r="15.472"/>
	<circle fill="#097B35" cx="276.688" cy="-1551.124" r="14.406"/>
	<circle fill="#010202" cx="300.247" cy="-1516.946" r="13.072"/>
	<text transform="matrix(1 0 0 1 311.6328 -1603.8252)" font-family="'MyriadPro-Regular'" font-size="291.5666"> B </text>
</g>
<g id="grid" display="none">
	<circle display="inline" fill="#FFFFFF" cx="336.493" cy="-989.36" r="10.404"/>
	
		<ellipse display="inline" fill="none" stroke="#302011" stroke-width="2" stroke-miterlimit="10" cx="-509.868" cy="-5.958" rx="70.842" ry="68.636"/>
	<path display="inline" fill="none" stroke="#302011" stroke-width="2" stroke-miterlimit="10" d="M-220.508-6.459
		c0,155.09-129.768,280.82-289.844,280.82c-160.08,0-289.846-125.73-289.846-280.82c0-155.086,129.766-280.82,289.846-280.82
		C-350.275-287.279-220.508-161.545-220.508-6.459z"/>
	<path display="inline" fill="none" stroke="#302011" stroke-width="2" stroke-miterlimit="10" d="M-296.318-5.961
		c0,114.252-95.596,206.873-213.52,206.873c-117.926,0-213.521-92.621-213.521-206.873c0-114.248,95.596-206.871,213.521-206.871
		C-391.914-212.832-296.318-120.209-296.318-5.961z"/>
	
		<ellipse display="inline" fill="none" stroke="#302011" stroke-width="2" stroke-miterlimit="10" cx="-511.341" cy="-6.96" rx="146.056" ry="141.508"/>
	<path display="inline" fill="none" stroke="#302011" stroke-width="2" stroke-miterlimit="10" d="M-151.346-6.461
		c0,192.098-160.734,347.828-359.008,347.828c-198.277,0-359.012-155.73-359.012-347.828c0-192.094,160.734-347.828,359.012-347.828
		C-312.08-354.289-151.346-198.555-151.346-6.461z"/>
	<path display="inline" fill="none" stroke="#302011" stroke-width="2" stroke-miterlimit="10" d="M-78.711-6.461
		c0,230.969-193.254,418.207-431.641,418.207c-238.398,0-431.652-187.238-431.652-418.207
		c0-230.961,193.254-418.203,431.652-418.203C-271.965-424.664-78.711-237.422-78.711-6.461z"/>
	
		<line display="inline" fill="none" stroke="#302011" stroke-width="2" stroke-miterlimit="10" x1="-512.385" y1="-491.562" x2="-512.385" y2="455.016"/>
	
		<line display="inline" fill="none" stroke="#302011" stroke-width="2" stroke-miterlimit="10" x1="-698.485" y1="-461.16" x2="-336.246" y2="413.362"/>
	
		<line display="inline" fill="none" stroke="#302011" stroke-width="2" stroke-miterlimit="10" x1="-846.016" y1="-343.568" x2="-176.685" y2="325.763"/>
	
		<line display="inline" fill="none" stroke="#302011" stroke-width="2" stroke-miterlimit="10" x1="-953.098" y1="-190.526" x2="-78.575" y2="171.714"/>
	
		<line display="inline" fill="none" stroke="#302011" stroke-width="2" stroke-miterlimit="10" x1="-985.111" y1="-8.91" x2="-38.533" y2="-8.908"/>
	
		<line display="inline" fill="none" stroke="#302011" stroke-width="2" stroke-miterlimit="10" x1="-967.083" y1="180.747" x2="-92.561" y2="-181.491"/>
	
		<line display="inline" fill="none" stroke="#302011" stroke-width="2" stroke-miterlimit="10" x1="-849.491" y1="328.278" x2="-180.16" y2="-341.053"/>
	
		<line display="inline" fill="none" stroke="#302011" stroke-width="2" stroke-miterlimit="10" x1="-696.449" y1="435.36" x2="-334.209" y2="-439.163"/>
</g>
<g id="coloura">
	<path fill="#E52420" d="M-431.75-934.75"/>
	<path fill="#E52420" d="M-431.25-943.75"/>
	<path fill="#E52420" d="M-433.5-936.5"/>
	<path fill="#E52420" d="M-512.458-935.167c0,0,80.708-2.833,160.458,29.667l-27.25,65c0,0-65-26.167-133.25-23.917
		L-512.458-935.167z"/>
	<path fill="#1A9438" d="M-512.583-865.672c0,0,68.348-5.071,133.333,25.172l-25.625,62.25c0,0-52.135-21.095-107.75-19
		L-512.583-865.672z"/>
	<path fill="#263779" d="M-512.625-797.25c0,0,48.25-3.563,107.75,19l-28.707,69.021c0,0-38.761-15.264-79.002-13.938
		L-512.625-797.25z"/>
	<path fill="#E42621" d="M-512.563-723.375c0,0,37.063-2.063,78.981,14.146l-24.856,60.354c0,0-26.466-10.785-54.063-9.875
		L-512.563-723.375z"/>
	<path fill="#199438" d="M-512.24-659.328c0,0,23.833-1.5,53.927,10.078l-28.262,67.952c0,0-12.083-4.333-25.833-3.583
		L-512.24-659.328z"/>
	<path fill="#263779" d="M-512.408-584.881c0,0,12.509-0.965,25.833,3.583L-512.625-518L-512.408-584.881z"/>
	<path fill="#E52420" d="M-595.773-931.729"/>
	<path fill="#E52420" d="M-598.736-940.181"/>
	<path fill="#E52420" d="M-598.044-932.67"/>
	<path fill="#243777" d="M-670.004-901.431c0,0,72.996-33.283,158.542-33.771l-0.299,70.015c0,0-69.603,0.695-131.386,28.705
		L-670.004-901.431z"/>
	<path fill="#E42621" d="M-643.7-837.604c0,0,60.8-30.636,131.939-27.584l0.146,66.874c0,0-55.868,0.458-106.113,23.523
		L-643.7-837.604z"/>
	<path fill="#199438" d="M-617.727-774.79c0,0,42.929-21.612,106.113-23.523l-0.107,74.259c0,0-41.376,0.726-77.805,17.24
		L-617.727-774.79z"/>
	<path fill="#243777" d="M-589.585-707.012c0,0,33.231-15.984,77.864-17.043l0.132,64.84c0,0-28.389,0.163-53.372,11.489
		L-589.585-707.012z"/>
	<path fill="#E42621" d="M-564.942-648.355c0,0,21.304-10.437,53.325-11.251l-0.105,73.109c0,0-12.738,0.617-25.072,6.531
		L-564.942-648.355z"/>
	<path fill="#199438" d="M-536.794-579.966c0,0,11.114-5.641,25.072-6.531l0.154,67.997L-536.794-579.966z"/>
	<path fill="#189439" d="M-803.101-809.98c0,0,54.599-58.573,133.298-91.699l26.466,64.676c0,0-63.917,27.228-110.19,76.654
		L-803.101-809.98z"/>
	<path fill="#243674" d="M-754.465-761.17c0,0,44.364-51.475,111.128-75.834l25.68,61.61c0,0-51.344,21.762-88.866,62.223
		L-754.465-761.17z"/>
	<path fill="#E42722" d="M-706.523-713.171c0,0,31.331-36.326,88.866-62.223l28.263,68.517c0,0-37.876,16.474-65.16,45.617
		L-706.523-713.171z"/>
	<path fill="#189439" d="M-654.685-661.421c0,0,24.538-27.432,65.291-45.456l24.889,59.742c0,0-26.116,10.993-44.826,30.979
		L-654.685-661.421z"/>
	<path fill="#243674" d="M-609.556-616.743c0,0,15.658-17.76,44.875-30.743l27.827,67.456c0,0-11.51,5.435-20.625,15.599
		L-609.556-616.743z"/>
	<path fill="#E42722" d="M-557.479-564.432c0,0,8.095-9.446,20.625-15.599l26.114,62.644L-557.479-564.432z"/>
	<path fill="#E52420" d="M-862.089-751.144"/>
	<path fill="#E52420" d="M-864.36-750.203"/>
	<path fill="#E42621" d="M-889.903-675.873c0,0,27.842-74.513,87.477-134.832l48.878,49.297c0,0-48.311,49.285-71.99,112.24
		L-889.903-675.873z"/>
	<path fill="#199438" d="M-826.712-649.565c0,0,21.148-64.107,73.164-111.843l46.989,46.783c0,0-38.849,39.491-57.905,90.889
		L-826.712-649.565z"/>
	<path fill="#243777" d="M-764.464-623.736c0,0,14.945-45.25,57.905-90.889l51.986,52.137c0,0-28.5,29.52-42.461,66.638
		L-764.464-623.736z"/>
	<path fill="#E42621" d="M-697.214-595.947c0,0,12.092-34.505,42.642-66.541l45.552,45.367c0,0-19.791,20.019-29.364,45.476
		L-697.214-595.947z"/>
	<path fill="#199438" d="M-638.812-572.1c0,0,7.619-22.255,29.497-45.274l51.184,51.33c0,0-8.497,9.362-12.999,22.157
		L-638.812-572.1z"/>
	<path fill="#243777" d="M-571.13-543.887c0,0,3.837-11.747,12.999-22.157l47.781,47.565L-571.13-543.887z"/>
	<path fill="#243777" d="M-919.104-519.199c0,0-2.773-78.967,29.026-156.994l63.596,26.662c0,0-25.601,63.596-23.4,130.372
		L-919.104-519.199z"/>
	<path fill="#E42621" d="M-851.111-519.077c0,0-4.958-66.872,24.63-130.454l60.907,25.073c0,0-20.641,51.009-18.59,105.422
		L-851.111-519.077z"/>
	<path fill="#199438" d="M-784.165-519.036c0,0-3.485-47.208,18.59-105.422l67.53,28.085c0,0-14.934,37.926-13.637,77.297
		L-784.165-519.036z"/>
	<path fill="#243777" d="M-711.884-519.098c0,0-2.02-36.264,13.84-77.275l59.05,24.32c0,0-10.551,25.893-9.661,52.894
		L-711.884-519.098z"/>
	<path fill="#E42621" d="M-649.223-519.414c0,0-1.465-23.317,9.862-52.763l66.485,27.653c0,0-4.239,11.822-3.508,25.273
		L-649.223-519.414z"/>
	<path fill="#199438" d="M-576.383-519.25c0,0-0.943-12.237,3.508-25.273l61.932,25.486L-576.383-519.25z"/>
	<path fill="#189439" d="M-886.056-363.622c0,0-32.719-71.757-33.199-155.854l68.826,0.295c0,0,0.686,68.421,28.219,129.156
		L-886.056-363.622z"/>
	<path fill="#243674" d="M-823.309-389.477c0,0-30.118-59.771-27.12-129.704l65.741-0.147c0,0,0.451,54.924,23.125,104.316
		L-823.309-389.477z"/>
	<path fill="#E42722" d="M-761.563-415.012c0,0-21.247-42.2-23.125-104.316l72.999,0.108c0,0,0.715,40.675,16.948,76.485
		L-761.563-415.012z"/>
	<path fill="#189439" d="M-694.935-442.676c0,0-15.713-32.669-16.754-76.544l63.742-0.13c0,0,0.16,27.907,11.294,52.466
		L-694.935-442.676z"/>
	<path fill="#243674" d="M-637.272-466.902c0,0-10.259-20.941-11.061-52.421l71.871,0.105c0,0,0.606,12.521,6.419,24.646
		L-637.272-466.902z"/>
	<path fill="#E42722" d="M-570.043-494.572c0,0-5.544-10.926-6.419-24.646l66.843-0.152L-570.043-494.572z"/>
	<path fill="#E42621" d="M-796.743-234.089c0,0-57.308-53.42-89.717-130.419l63.279-25.895c0,0,26.639,62.535,74.999,107.811
		L-796.743-234.089z"/>
	<path fill="#199438" d="M-748.986-281.674c0,0-50.362-43.407-74.195-108.729l60.28-25.125c0,0,21.293,50.234,60.879,86.946
		L-748.986-281.674z"/>
	<path fill="#243777" d="M-702.021-328.581c0,0-35.542-30.653-60.879-86.946l67.037-27.654c0,0,16.118,37.061,44.632,63.754
		L-702.021-328.581z"/>
	<path fill="#E42621" d="M-651.387-379.299c0,0-26.841-24.009-44.477-63.883l58.45-24.349c0,0,10.757,25.552,30.312,43.859
		L-651.387-379.299z"/>
	<path fill="#199438" d="M-607.676-423.453c0,0-17.378-15.322-30.079-43.907l66-27.227c0,0,5.317,11.261,15.263,20.181
		L-607.676-423.453z"/>
	<path fill="#243777" d="M-556.493-474.406c0,0-9.243-7.92-15.263-20.181l61.291-25.55L-556.493-474.406z"/>
	<path fill="#243777" d="M-665.298-148.683c0,0-73.063-27.301-132.209-85.777l48.339-47.925c0,0,48.327,47.368,110.057,70.587
		L-665.298-148.683z"/>
	<path fill="#E42621" d="M-639.502-210.645c0,0-62.859-20.74-109.666-71.74l45.874-46.074c0,0,38.722,38.091,89.119,56.776
		L-639.502-210.645z"/>
	<path fill="#199438" d="M-614.176-271.683c0,0-44.368-14.656-89.119-56.776l51.123-50.977c0,0,28.945,27.945,65.339,41.634
		L-614.176-271.683z"/>
	<path fill="#243777" d="M-586.928-337.624c0,0-33.834-11.857-65.244-41.812l44.485-44.664c0,0,19.628,19.4,44.589,28.789
		L-586.928-337.624z"/>
	<path fill="#E42621" d="M-563.544-394.89c0,0-21.819-7.472-44.394-28.924l50.333-50.188c0,0,9.181,8.332,21.724,12.746
		L-563.544-394.89z"/>
	<path fill="#199438" d="M-535.881-461.256c0,0-11.515-3.762-21.724-12.746l46.638-46.854L-535.881-461.256z"/>
	<path fill="#189439" d="M-510.931-120.052c0,0-77.802,2.729-154.676-28.599l26.269-62.656c0,0,62.656,25.221,128.447,23.056
		L-510.931-120.052z"/>
	<path fill="#243674" d="M-510.807-187.043c0,0-65.887,4.889-128.531-24.264l24.699-60.009c0,0,50.261,20.336,103.87,18.315
		L-510.807-187.043z"/>
	<path fill="#E42722" d="M-510.77-253c0,0-46.511,3.437-103.87-18.315l27.674-66.533c0,0,37.364,14.714,76.154,13.437L-510.77-253z"
		/>
	<path fill="#189439" d="M-510.831-324.213c0,0-35.729,1.99-76.135-13.636l23.96-58.181c0,0,25.511,10.396,52.113,9.52
		L-510.831-324.213z"/>
	<path fill="#243674" d="M-511.142-385.952c0,0-22.973,1.446-51.987-9.715l27.248-65.503c0,0,11.647,4.176,24.9,3.455
		L-511.142-385.952z"/>
	<path fill="#E42722" d="M-510.981-457.715c0,0-12.057,0.93-24.9-3.455l25.111-61.018L-510.981-457.715z"/>
	<path fill="#E42621" d="M-359.063-152.572c0,0-70.365,32.085-152.828,32.555l0.288-67.491c0,0,67.093-0.672,126.652-27.673
		L-359.063-152.572z"/>
	<path fill="#199438" d="M-384.419-214.1c0,0-58.611,29.531-127.184,26.591l-0.142-64.465c0,0,53.854-0.443,102.29-22.676
		L-384.419-214.1z"/>
	<path fill="#243777" d="M-409.456-274.649c0,0-41.382,20.832-102.29,22.676l0.103-71.584c0,0,39.887-0.698,75.002-16.619
		L-409.456-274.649z"/>
	<path fill="#E42621" d="M-436.582-339.986c0,0-32.034,15.407-75.06,16.429l-0.125-62.502c0,0,27.366-0.159,51.449-11.075
		L-436.582-339.986z"/>
	<path fill="#199438" d="M-460.338-396.528c0,0-20.538,10.061-51.404,10.845l0.102-70.475c0,0,12.278-0.594,24.169-6.297
		L-460.338-396.528z"/>
	<path fill="#243777" d="M-487.471-462.455c0,0-10.714,5.437-24.169,6.297l-0.148-65.547L-487.471-462.455z"/>
	<path fill="#243777" d="M-232.144-240.4c0,0-52.258,56.064-127.588,87.77l-25.332-61.907c0,0,61.175-26.059,105.468-73.37
		L-232.144-240.4z"/>
	<path fill="#E42621" d="M-278.694-287.117c0,0-42.468,49.267-106.369,72.579l-24.578-58.971c0,0,49.141-20.829,85.057-59.556
		L-278.694-287.117z"/>
	<path fill="#199438" d="M-324.585-333.064c0,0-29.989,34.769-85.057,59.556l-27.055-65.58c0,0,36.256-15.77,62.369-43.662
		L-324.585-333.064z"/>
	<path fill="#243777" d="M-374.204-382.599c0,0-23.487,26.259-62.493,43.51l-23.819-57.182c0,0,24.994-10.523,42.903-29.654
		L-374.204-382.599z"/>
	<path fill="#E42621" d="M-417.398-425.36c0,0-14.989,16.997-42.954,29.425l-26.635-64.566c0,0,11.016-5.203,19.741-14.931
		L-417.398-425.36z"/>
	<path fill="#199438" d="M-467.245-475.433c0,0-7.746,9.04-19.741,14.931l-24.998-59.96L-467.245-475.433z"/>
	<path fill="#189439" d="M-148.103-369.775c0,0-26.779,71.657-84.127,129.669l-47.005-47.41c0,0,46.458-47.399,69.233-107.94
		L-148.103-369.775z"/>
	<path fill="#243674" d="M-208.873-395.079c0,0-20.337,61.655-70.361,107.563l-45.191-44.987c0,0,37.362-37.982,55.687-87.412
		L-208.873-395.079z"/>
	<path fill="#E42722" d="M-268.738-419.916c0,0-14.371,43.518-55.687,87.412l-49.994-50.145c0,0,27.408-28.387,40.834-64.085
		L-268.738-419.916z"/>
	<path fill="#189439" d="M-333.412-446.642c0,0-11.63,33.185-41.007,63.993l-43.811-43.63c0,0,19.031-19.252,28.239-43.732
		L-333.412-446.642z"/>
	<path fill="#243674" d="M-389.578-469.574c0,0-7.326,21.401-28.368,43.544l-49.223-49.369c0,0,8.171-9.003,12.502-21.307
		L-389.578-469.574z"/>
	<path fill="#E42722" d="M-454.667-496.706c0,0-3.691,11.296-12.502,21.307l-45.951-45.743L-454.667-496.706z"/>
	<path fill="#E42621" d="M-120.518-519.875c0,0,2.668,75.944-27.915,150.986l-61.164-25.643c0,0,24.62-61.163,22.505-125.387
		L-120.518-519.875z"/>
	<path fill="#199438" d="M-185.91-519.994c0,0,4.77,64.313-23.687,125.463l-58.577-24.113c0,0,19.849-49.059,17.879-101.392
		L-185.91-519.994z"/>
	<path fill="#243777" d="M-250.294-520.036c0,0,3.352,45.404-17.879,101.392l-64.949-27.013c0,0,14.366-36.474,13.116-74.341
		L-250.294-520.036z"/>
	<path fill="#E42621" d="M-319.811-519.979c0,0,1.941,34.877-13.311,74.321l-56.79-23.39c0,0,10.147-24.902,9.292-50.871
		L-319.811-519.979z"/>
	<path fill="#199438" d="M-380.076-519.673c0,0,1.411,22.429-9.485,50.744l-63.941-26.594c0,0,4.079-11.368,3.372-24.309
		L-380.076-519.673z"/>
	<path fill="#243777" d="M-450.13-519.831c0,0,0.907,11.771-3.372,24.309l-59.562-24.513L-450.13-519.831z"/>
	<path fill="#243777" d="M-152.795-668.835c0,0,31.344,68.737,31.802,149.296l-65.931-0.285c0,0-0.655-65.537-27.033-123.72
		L-152.795-668.835z"/>
	<path fill="#E42621" d="M-212.896-644.064c0,0,28.846,57.257,25.971,124.24l-62.973,0.138c0,0-0.431-52.604-22.151-99.92
		L-212.896-644.064z"/>
	<path fill="#199438" d="M-272.048-619.606c0,0,20.35,40.425,22.151,99.92l-69.926-0.099c0,0-0.684-38.964-16.234-73.265
		L-272.048-619.606z"/>
	<path fill="#243777" d="M-335.873-593.106c0,0,15.054,31.294,16.049,73.321l-61.056,0.122c0,0-0.156-26.729-10.822-50.255
		L-335.873-593.106z"/>
	<path fill="#E42621" d="M-391.106-569.901c0,0,9.825,20.063,10.593,50.215l-68.844-0.099c0,0-0.583-11.996-6.151-23.61
		L-391.106-569.901z"/>
	<path fill="#199438" d="M-455.507-543.396c0,0,5.311,10.466,6.151,23.61l-64.032,0.146L-455.507-543.396z"/>
	<path fill="#189439" d="M-238.909-794.166c0,0,55.152,51.414,86.35,125.521l-60.904,24.921c0,0-25.64-60.186-72.18-103.761
		L-238.909-794.166z"/>
	<path fill="#243674" d="M-284.874-748.373c0,0,48.474,41.778,71.411,104.648l-58.013,24.184c0,0-20.496-48.35-58.598-83.683
		L-284.874-748.373z"/>
	<path fill="#E42722" d="M-330.074-703.224c0,0,34.209,29.502,58.598,83.683l-64.522,26.613c0,0-15.513-35.667-42.957-61.359
		L-330.074-703.224z"/>
	<path fill="#189439" d="M-378.806-654.41c0,0,25.833,23.108,42.808,61.482l-56.258,23.438c0,0-10.352-24.592-29.171-42.21
		L-378.806-654.41z"/>
	<path fill="#243674" d="M-420.875-611.912c0,0,16.726,14.744,28.952,42.258l-63.524,26.201c0,0-5.116-10.836-14.687-19.422
		L-420.875-611.912z"/>
	<path fill="#E42722" d="M-470.134-562.875c0,0,8.893,7.623,14.687,19.422l-58.99,24.592L-470.134-562.875z"/>
	<path fill="#E52420" d="M590.847-927.219"/>
	<path fill="#E52420" d="M591.347-936.219"/>
	<path fill="#E52420" d="M589.097-928.969"/>
	<path fill="#E52420" d="M510.139-927.636c0,0,80.708-2.833,160.458,29.667l-27.25,65c0,0-65-26.167-133.25-23.917L510.139-927.636z
		"/>
	<path fill="#1A9438" d="M510.014-858.141c0,0,68.348-5.071,133.333,25.172l-25.625,62.25c0,0-52.136-21.095-107.75-19
		L510.014-858.141z"/>
	<path fill="#263779" d="M509.972-789.719c0,0,48.25-3.563,107.75,19l-28.706,69.021c0,0-38.762-15.264-79.002-13.938
		L509.972-789.719z"/>
	<path fill="#E42621" d="M510.034-715.844c0,0,37.063-2.063,78.981,14.146l-24.856,60.354c0,0-26.466-10.785-54.063-9.875
		L510.034-715.844z"/>
	<path fill="#199438" d="M510.357-651.797c0,0,23.833-1.5,53.927,10.078l-28.262,67.952c0,0-12.083-4.333-25.833-3.583
		L510.357-651.797z"/>
	<path fill="#263779" d="M510.189-577.35c0,0,12.509-0.965,25.833,3.583l-26.051,63.298L510.189-577.35z"/>
	<path fill="#E52420" d="M426.824-924.198"/>
	<path fill="#E52420" d="M423.861-932.649"/>
	<path fill="#E52420" d="M424.553-925.139"/>
	<path fill="#243777" d="M352.593-893.899c0,0,72.996-33.283,158.542-33.771l-0.299,70.015c0,0-69.602,0.695-131.386,28.705
		L352.593-893.899z"/>
	<path fill="#E42621" d="M378.896-830.072c0,0,60.801-30.636,131.939-27.584l0.146,66.874c0,0-55.867,0.458-106.112,23.523
		L378.896-830.072z"/>
	<path fill="#199438" d="M404.87-767.259c0,0,42.929-21.612,106.112-23.523l-0.107,74.259c0,0-41.376,0.726-77.805,17.24
		L404.87-767.259z"/>
	<path fill="#243777" d="M433.012-699.48c0,0,33.23-15.984,77.863-17.043l0.133,64.84c0,0-28.39,0.163-53.372,11.489L433.012-699.48
		z"/>
	<path fill="#E42621" d="M457.654-640.824c0,0,21.305-10.437,53.326-11.251l-0.105,73.109c0,0-12.738,0.617-25.072,6.531
		L457.654-640.824z"/>
	<path fill="#199438" d="M485.803-572.435c0,0,11.113-5.641,25.072-6.531l0.154,67.997L485.803-572.435z"/>
	<path fill="#189439" d="M219.496-802.449c0,0,54.599-58.573,133.298-91.699l26.466,64.676c0,0-63.916,27.228-110.19,76.654
		L219.496-802.449z"/>
	<path fill="#243674" d="M268.131-753.639c0,0,44.365-51.475,111.129-75.834l25.68,61.61c0,0-51.344,21.762-88.866,62.223
		L268.131-753.639z"/>
	<path fill="#E42722" d="M316.073-705.64c0,0,31.331-36.326,88.866-62.223l28.263,68.517c0,0-37.876,16.474-65.159,45.617
		L316.073-705.64z"/>
	<path fill="#189439" d="M367.912-653.89c0,0,24.537-27.432,65.29-45.456l24.889,59.742c0,0-26.116,10.993-44.826,30.979
		L367.912-653.89z"/>
	<path fill="#243674" d="M413.041-609.212c0,0,15.658-17.76,44.875-30.743l27.826,67.456c0,0-11.51,5.435-20.624,15.599
		L413.041-609.212z"/>
	<path fill="#E42722" d="M465.118-556.9c0,0,8.095-9.446,20.624-15.599l26.115,62.644L465.118-556.9z"/>
	<path fill="#E52420" d="M160.508-743.612"/>
	<path fill="#E52420" d="M158.236-742.672"/>
	<path fill="#E42621" d="M132.693-668.342c0,0,27.842-74.513,87.477-134.832l48.879,49.297c0,0-48.312,49.285-71.99,112.24
		L132.693-668.342z"/>
	<path fill="#199438" d="M195.885-642.034c0,0,21.148-64.107,73.164-111.843l46.988,46.783c0,0-38.849,39.491-57.904,90.889
		L195.885-642.034z"/>
	<path fill="#243777" d="M258.133-616.205c0,0,14.945-45.25,57.904-90.889l51.986,52.137c0,0-28.5,29.52-42.461,66.638
		L258.133-616.205z"/>
	<path fill="#E42621" d="M325.383-588.416c0,0,12.092-34.505,42.641-66.541l45.553,45.367c0,0-19.791,20.019-29.363,45.476
		L325.383-588.416z"/>
	<path fill="#199438" d="M383.785-564.568c0,0,7.619-22.255,29.496-45.274l51.185,51.33c0,0-8.497,9.362-12.999,22.157
		L383.785-564.568z"/>
	<path fill="#243777" d="M451.467-536.355c0,0,3.838-11.747,12.999-22.157l47.781,47.565L451.467-536.355z"/>
	<path fill="#243777" d="M103.493-511.668c0,0-2.773-78.967,29.026-156.994L196.115-642c0,0-25.601,63.596-23.4,130.372
		L103.493-511.668z"/>
	<path fill="#E42621" d="M171.485-511.546c0,0-4.958-66.872,24.63-130.454l60.907,25.073c0,0-20.642,51.009-18.591,105.422
		L171.485-511.546z"/>
	<path fill="#199438" d="M238.432-511.505c0,0-3.484-47.208,18.591-105.422l67.53,28.085c0,0-14.935,37.926-13.638,77.297
		L238.432-511.505z"/>
	<path fill="#243777" d="M310.713-511.566c0,0-2.02-36.264,13.84-77.275l59.05,24.32c0,0-10.551,25.893-9.661,52.894
		L310.713-511.566z"/>
	<path fill="#E42621" d="M373.374-511.883c0,0-1.466-23.317,9.862-52.763l66.485,27.653c0,0-4.239,11.822-3.508,25.273
		L373.374-511.883z"/>
	<path fill="#199438" d="M446.214-511.719c0,0-0.943-12.237,3.508-25.273l61.932,25.486L446.214-511.719z"/>
	<path fill="#189439" d="M136.541-356.091c0,0-32.719-71.757-33.199-155.854l68.826,0.295c0,0,0.686,68.421,28.219,129.156
		L136.541-356.091z"/>
	<path fill="#243674" d="M199.287-381.945c0,0-30.117-59.771-27.119-129.704l65.741-0.147c0,0,0.45,54.924,23.125,104.316
		L199.287-381.945z"/>
	<path fill="#E42722" d="M261.034-407.48c0,0-21.247-42.2-23.125-104.316l72.999,0.108c0,0,0.715,40.675,16.947,76.485
		L261.034-407.48z"/>
	<path fill="#189439" d="M327.662-435.145c0,0-15.714-32.669-16.754-76.544l63.742-0.13c0,0,0.159,27.907,11.293,52.466
		L327.662-435.145z"/>
	<path fill="#243674" d="M385.324-459.371c0,0-10.259-20.941-11.061-52.421l71.871,0.105c0,0,0.605,12.521,6.419,24.646
		L385.324-459.371z"/>
	<path fill="#E42722" d="M452.554-487.041c0,0-5.544-10.926-6.419-24.646l66.843-0.152L452.554-487.041z"/>
	<path fill="#E42621" d="M225.854-226.558c0,0-57.307-53.42-89.717-130.419l63.279-25.895c0,0,26.639,62.535,74.998,107.811
		L225.854-226.558z"/>
	<path fill="#199438" d="M273.61-274.143c0,0-50.362-43.407-74.194-108.729l60.279-25.125c0,0,21.293,50.234,60.88,86.946
		L273.61-274.143z"/>
	<path fill="#243777" d="M320.575-321.05c0,0-35.542-30.653-60.88-86.946l67.037-27.654c0,0,16.119,37.061,44.633,63.754
		L320.575-321.05z"/>
	<path fill="#E42621" d="M371.209-371.768c0,0-26.84-24.009-44.477-63.883l58.451-24.349c0,0,10.757,25.552,30.312,43.859
		L371.209-371.768z"/>
	<path fill="#199438" d="M414.92-415.922c0,0-17.378-15.322-30.078-43.907l65.999-27.227c0,0,5.317,11.261,15.263,20.181
		L414.92-415.922z"/>
	<path fill="#243777" d="M466.104-466.875c0,0-9.243-7.92-15.263-20.181l61.29-25.55L466.104-466.875z"/>
	<path fill="#243777" d="M357.299-141.151c0,0-73.063-27.301-132.209-85.777l48.338-47.925c0,0,48.327,47.368,110.057,70.587
		L357.299-141.151z"/>
	<path fill="#E42621" d="M383.094-203.113c0,0-62.859-20.74-109.666-71.74l45.874-46.074c0,0,38.722,38.091,89.119,56.776
		L383.094-203.113z"/>
	<path fill="#199438" d="M408.421-264.151c0,0-44.368-14.656-89.119-56.776l51.123-50.977c0,0,28.945,27.945,65.339,41.634
		L408.421-264.151z"/>
	<path fill="#243777" d="M435.668-330.093c0,0-33.834-11.857-65.243-41.812l44.485-44.664c0,0,19.628,19.4,44.588,28.789
		L435.668-330.093z"/>
	<path fill="#E42621" d="M459.053-387.358c0,0-21.82-7.472-44.395-28.924l50.334-50.188c0,0,9.181,8.332,21.724,12.746
		L459.053-387.358z"/>
	<path fill="#199438" d="M486.716-453.725c0,0-11.515-3.762-21.724-12.746l46.639-46.854L486.716-453.725z"/>
	<path fill="#189439" d="M511.666-112.521c0,0-77.802,2.729-154.676-28.599l26.268-62.656c0,0,62.656,25.221,128.447,23.056
		L511.666-112.521z"/>
	<path fill="#243674" d="M511.789-179.512c0,0-65.887,4.889-128.531-24.264l24.699-60.009c0,0,50.262,20.336,103.87,18.315
		L511.789-179.512z"/>
	<path fill="#E42722" d="M511.827-245.469c0,0-46.511,3.437-103.87-18.315l27.674-66.533c0,0,37.364,14.714,76.154,13.437
		L511.827-245.469z"/>
	<path fill="#189439" d="M511.766-316.682c0,0-35.729,1.99-76.135-13.636l23.961-58.181c0,0,25.511,10.396,52.113,9.52
		L511.766-316.682z"/>
	<path fill="#243674" d="M511.455-378.421c0,0-22.973,1.446-51.986-9.715l27.247-65.503c0,0,11.647,4.176,24.899,3.455
		L511.455-378.421z"/>
	<path fill="#E42722" d="M511.615-450.184c0,0-12.057,0.93-24.899-3.455l25.111-61.018L511.615-450.184z"/>
	<path fill="#E42621" d="M663.533-145.041c0,0-70.365,32.085-152.828,32.555l0.288-67.491c0,0,67.093-0.672,126.652-27.673
		L663.533-145.041z"/>
	<path fill="#199438" d="M638.178-206.568c0,0-58.611,29.531-127.185,26.591l-0.142-64.465c0,0,53.854-0.443,102.289-22.676
		L638.178-206.568z"/>
	<path fill="#243777" d="M613.141-267.118c0,0-41.381,20.832-102.289,22.676l0.104-71.584c0,0,39.887-0.698,75.002-16.619
		L613.141-267.118z"/>
	<path fill="#E42621" d="M586.015-332.455c0,0-32.034,15.407-75.06,16.429l-0.126-62.502c0,0,27.366-0.159,51.449-11.075
		L586.015-332.455z"/>
	<path fill="#199438" d="M562.259-388.997c0,0-20.538,10.061-51.404,10.845l0.103-70.475c0,0,12.277-0.594,24.169-6.297
		L562.259-388.997z"/>
	<path fill="#243777" d="M535.126-454.924c0,0-10.714,5.437-24.169,6.297l-0.148-65.547L535.126-454.924z"/>
	<path fill="#243777" d="M790.453-232.869c0,0-52.258,56.064-127.588,87.77l-25.332-61.907c0,0,61.176-26.059,105.469-73.37
		L790.453-232.869z"/>
	<path fill="#E42621" d="M743.902-279.586c0,0-42.468,49.267-106.369,72.579l-24.578-58.971c0,0,49.141-20.829,85.057-59.556
		L743.902-279.586z"/>
	<path fill="#199438" d="M698.012-325.533c0,0-29.988,34.769-85.057,59.556l-27.055-65.58c0,0,36.256-15.77,62.369-43.662
		L698.012-325.533z"/>
	<path fill="#243777" d="M648.393-375.067c0,0-23.486,26.259-62.492,43.51l-23.819-57.182c0,0,24.994-10.523,42.903-29.654
		L648.393-375.067z"/>
	<path fill="#E42621" d="M605.199-417.829c0,0-14.99,16.997-42.954,29.425l-26.635-64.566c0,0,11.017-5.203,19.741-14.931
		L605.199-417.829z"/>
	<path fill="#199438" d="M555.352-467.901c0,0-7.746,9.04-19.741,14.931l-24.998-59.96L555.352-467.901z"/>
	<path fill="#189439" d="M874.494-362.244c0,0-26.779,71.657-84.127,129.669l-47.005-47.41c0,0,46.458-47.399,69.233-107.94
		L874.494-362.244z"/>
	<path fill="#243674" d="M813.724-387.548c0,0-20.337,61.655-70.361,107.563l-45.19-44.987c0,0,37.361-37.982,55.687-87.412
		L813.724-387.548z"/>
	<path fill="#E42722" d="M753.858-412.385c0,0-14.371,43.518-55.687,87.412l-49.994-50.145c0,0,27.408-28.387,40.834-64.085
		L753.858-412.385z"/>
	<path fill="#189439" d="M689.185-439.11c0,0-11.63,33.185-41.007,63.993l-43.811-43.63c0,0,19.031-19.252,28.238-43.732
		L689.185-439.11z"/>
	<path fill="#243674" d="M633.02-462.043c0,0-7.326,21.401-28.369,43.544l-49.223-49.369c0,0,8.172-9.003,12.502-21.307
		L633.02-462.043z"/>
	<path fill="#E42722" d="M567.93-489.175c0,0-3.69,11.296-12.502,21.307l-45.951-45.743L567.93-489.175z"/>
	<path fill="#E42621" d="M902.079-512.344c0,0,2.668,75.944-27.915,150.986L813-387c0,0,24.62-61.163,22.505-125.387
		L902.079-512.344z"/>
	<path fill="#199438" d="M836.688-512.463c0,0,4.77,64.313-23.688,125.463l-58.576-24.113c0,0,19.849-49.059,17.879-101.392
		L836.688-512.463z"/>
	<path fill="#243777" d="M772.303-512.505c0,0,3.352,45.404-17.879,101.392l-64.949-27.013c0,0,14.365-36.474,13.116-74.341
		L772.303-512.505z"/>
	<path fill="#E42621" d="M702.785-512.447c0,0,1.941,34.877-13.311,74.321l-56.789-23.39c0,0,10.146-24.902,9.292-50.871
		L702.785-512.447z"/>
	<path fill="#199438" d="M642.521-512.142c0,0,1.41,22.429-9.485,50.744l-63.941-26.594c0,0,4.079-11.368,3.372-24.309
		L642.521-512.142z"/>
	<path fill="#243777" d="M572.467-512.3c0,0,0.906,11.771-3.372,24.309l-59.562-24.513L572.467-512.3z"/>
	<path fill="#243777" d="M869.802-661.304c0,0,31.345,68.737,31.802,149.296l-65.932-0.285c0,0-0.654-65.537-27.032-123.72
		L869.802-661.304z"/>
	<path fill="#E42621" d="M809.701-636.533c0,0,28.846,57.257,25.971,124.24l-62.973,0.138c0,0-0.431-52.604-22.15-99.92
		L809.701-636.533z"/>
	<path fill="#199438" d="M750.549-612.075c0,0,20.35,40.425,22.15,99.92l-69.926-0.099c0,0-0.684-38.964-16.234-73.265
		L750.549-612.075z"/>
	<path fill="#243777" d="M686.725-585.575c0,0,15.053,31.294,16.049,73.321l-61.057,0.122c0,0-0.156-26.729-10.822-50.255
		L686.725-585.575z"/>
	<path fill="#E42621" d="M631.49-562.37c0,0,9.826,20.063,10.594,50.215l-68.844-0.099c0,0-0.583-11.996-6.15-23.61L631.49-562.37z"
		/>
	<path fill="#199438" d="M567.09-535.864c0,0,5.311,10.466,6.15,23.61l-64.032,0.146L567.09-535.864z"/>
	<path fill="#189439" d="M783.688-786.635c0,0,55.152,51.414,86.35,125.521l-60.904,24.921c0,0-25.64-60.186-72.18-103.761
		L783.688-786.635z"/>
	<path fill="#243674" d="M737.723-740.842c0,0,48.475,41.778,71.41,104.648l-58.012,24.184c0,0-20.496-48.35-58.598-83.683
		L737.723-740.842z"/>
	<path fill="#E42722" d="M692.523-695.692c0,0,34.209,29.502,58.598,83.683l-64.523,26.613c0,0-15.512-35.667-42.956-61.359
		L692.523-695.692z"/>
	<path fill="#189439" d="M643.791-646.879c0,0,25.833,23.108,42.807,61.482l-56.258,23.438c0,0-10.352-24.592-29.171-42.21
		L643.791-646.879z"/>
	<path fill="#243674" d="M601.721-604.381c0,0,16.727,14.744,28.953,42.258l-63.524,26.201c0,0-5.116-10.836-14.687-19.422
		L601.721-604.381z"/>
	<path fill="#E42722" d="M552.463-555.344c0,0,8.893,7.623,14.687,19.422L508.16-511.33L552.463-555.344z"/>
	<g>
		<path d="M602.528-404.928l-84.218-68.143l173.679-214.651l199.122,161.114c3.581,37.412-2.859,82.219-19.321,134.398
			c-16.466,52.186-41.118,98.583-73.964,139.177c-41.744,51.592-89.092,87.688-142.064,108.292
			c-52.967,20.608-107.658,24.051-164.067,10.324c-56.409-13.719-108.594-39.988-156.558-78.798
			c-52.05-42.114-89.598-90.31-112.639-144.581c-23.035-54.268-28.568-110.883-16.588-169.857
			c8.998-45.048,32.548-91.129,70.659-138.23c49.545-61.233,101.259-98.529,155.145-111.905
			c53.888-13.365,107.778-6.408,161.679,20.868l-61.28,114.088c-30.177-12.908-60.123-15.522-89.849-7.842
			c-29.719,7.686-56.201,25.88-79.43,54.588c-35.211,43.518-49.223,89.425-42.043,137.727c7.177,48.309,38.275,94.713,93.283,139.22
			c59.327,48.003,114.346,70.999,165.064,68.979c50.715-2.015,93.131-24.106,127.252-66.277
			c16.878-20.859,29.653-45.124,38.324-72.816c8.672-27.682,13.178-53.819,13.518-78.414l-63.42-51.313L602.528-404.928z"/>
	</g>
	<g>
		<defs>
			<path id="SVGID_5_" d="M-427.53,520.12l-84.218-68.143l173.679-214.651l199.122,161.114
				c3.581,37.412-2.859,82.219-19.321,134.398c-16.466,52.186-41.118,98.583-73.964,139.177
				c-41.744,51.592-89.092,87.688-142.064,108.292c-52.967,20.608-107.658,24.051-164.067,10.324
				c-56.409-13.719-108.594-39.988-156.558-78.798c-52.05-42.114-89.598-90.31-112.639-144.581
				c-23.035-54.268-28.568-110.883-16.588-169.857c8.998-45.048,32.548-91.129,70.659-138.23
				c49.545-61.233,101.259-98.529,155.145-111.905c53.888-13.365,107.778-6.408,161.679,20.868l-61.28,114.088
				c-30.177-12.908-60.123-15.522-89.849-7.842c-29.719,7.686-56.201,25.88-79.43,54.588
				c-35.211,43.518-49.223,89.425-42.043,137.727c7.177,48.309,38.275,94.713,93.283,139.22
				c59.327,48.003,114.346,70.999,165.064,68.979c50.715-2.015,93.131-24.106,127.252-66.277
				c16.878-20.859,29.653-45.124,38.324-72.816c8.672-27.682,13.178-53.819,13.518-78.414l-63.42-51.313L-427.53,520.12z"/>
		</defs>
		<clipPath id="SVGID_6_">
			<use xlink:href="#SVGID_5_"  overflow="visible"/>
		</clipPath>
		<path clip-path="url(#SVGID_6_)" fill="#E52420" d="M-439.211-2.171"/>
		<path clip-path="url(#SVGID_6_)" fill="#E52420" d="M-438.711-11.171"/>
		<path clip-path="url(#SVGID_6_)" fill="#E52420" d="M-440.961-3.921"/>
		<path clip-path="url(#SVGID_6_)" fill="#E52420" d="M-519.919-2.588c0,0,80.708-2.833,160.458,29.667l-27.25,65
			c0,0-65-26.167-133.25-23.917L-519.919-2.588z"/>
		<path clip-path="url(#SVGID_6_)" fill="#1A9438" d="M-520.044,66.907c0,0,68.348-5.071,133.333,25.172l-25.625,62.25
			c0,0-52.136-21.095-107.75-19L-520.044,66.907z"/>
		<path clip-path="url(#SVGID_6_)" fill="#263779" d="M-520.086,135.329c0,0,48.25-3.563,107.75,19l-28.706,69.021
			c0,0-38.762-15.264-79.002-13.938L-520.086,135.329z"/>
		<path clip-path="url(#SVGID_6_)" fill="#E42621" d="M-520.024,209.204c0,0,37.063-2.063,78.981,14.146l-24.856,60.354
			c0,0-26.466-10.785-54.063-9.875L-520.024,209.204z"/>
		<path clip-path="url(#SVGID_6_)" fill="#199438" d="M-519.701,273.251c0,0,23.833-1.5,53.927,10.078l-28.262,67.952
			c0,0-12.083-4.333-25.833-3.583L-519.701,273.251z"/>
		<path clip-path="url(#SVGID_6_)" fill="#263779" d="M-519.869,347.698c0,0,12.509-0.965,25.833,3.583l-26.051,63.298
			L-519.869,347.698z"/>
		<path clip-path="url(#SVGID_6_)" fill="#E52420" d="M-603.234,0.85"/>
		<path clip-path="url(#SVGID_6_)" fill="#E52420" d="M-606.197-7.602"/>
		<path clip-path="url(#SVGID_6_)" fill="#E52420" d="M-605.505-0.091"/>
		<path clip-path="url(#SVGID_6_)" fill="#243777" d="M-677.465,31.148c0,0,72.996-33.283,158.542-33.771l-0.299,70.015
			c0,0-69.602,0.695-131.386,28.705L-677.465,31.148z"/>
		<path clip-path="url(#SVGID_6_)" fill="#E42621" d="M-651.162,94.976c0,0,60.801-30.636,131.939-27.584l0.146,66.874
			c0,0-55.867,0.458-106.112,23.523L-651.162,94.976z"/>
		<path clip-path="url(#SVGID_6_)" fill="#199438" d="M-625.188,157.789c0,0,42.929-21.612,106.112-23.523l-0.107,74.259
			c0,0-41.376,0.726-77.805,17.24L-625.188,157.789z"/>
		<path clip-path="url(#SVGID_6_)" fill="#243777" d="M-597.046,225.567c0,0,33.23-15.984,77.863-17.043l0.133,64.84
			c0,0-28.39,0.163-53.372,11.489L-597.046,225.567z"/>
		<path clip-path="url(#SVGID_6_)" fill="#E42621" d="M-572.404,284.224c0,0,21.305-10.437,53.326-11.251l-0.105,73.109
			c0,0-12.738,0.617-25.072,6.531L-572.404,284.224z"/>
		<path clip-path="url(#SVGID_6_)" fill="#199438" d="M-544.255,352.613c0,0,11.113-5.641,25.072-6.531l0.154,67.997
			L-544.255,352.613z"/>
		<path clip-path="url(#SVGID_6_)" fill="#189439" d="M-810.562,122.599c0,0,54.599-58.573,133.298-91.699l26.466,64.676
			c0,0-63.916,27.228-110.19,76.654L-810.562,122.599z"/>
		<path clip-path="url(#SVGID_6_)" fill="#243674" d="M-761.927,171.409c0,0,44.365-51.475,111.129-75.834l25.68,61.61
			c0,0-51.344,21.762-88.866,62.223L-761.927,171.409z"/>
		<path clip-path="url(#SVGID_6_)" fill="#E42722" d="M-713.985,219.408c0,0,31.331-36.326,88.866-62.223l28.263,68.517
			c0,0-37.876,16.474-65.159,45.617L-713.985,219.408z"/>
		<path clip-path="url(#SVGID_6_)" fill="#189439" d="M-662.146,271.158c0,0,24.537-27.432,65.29-45.456l24.889,59.742
			c0,0-26.116,10.993-44.826,30.979L-662.146,271.158z"/>
		<path clip-path="url(#SVGID_6_)" fill="#243674" d="M-617.017,315.836c0,0,15.658-17.76,44.875-30.743l27.826,67.456
			c0,0-11.51,5.435-20.624,15.599L-617.017,315.836z"/>
		<path clip-path="url(#SVGID_6_)" fill="#E42722" d="M-564.94,368.147c0,0,8.095-9.446,20.624-15.599l26.115,62.644
			L-564.94,368.147z"/>
		<path clip-path="url(#SVGID_6_)" fill="#E52420" d="M-869.55,181.436"/>
		<path clip-path="url(#SVGID_6_)" fill="#E52420" d="M-871.822,182.376"/>
		<path clip-path="url(#SVGID_6_)" fill="#E42621" d="M-897.365,256.706c0,0,27.842-74.513,87.477-134.832l48.879,49.297
			c0,0-48.312,49.285-71.99,112.24L-897.365,256.706z"/>
		<path clip-path="url(#SVGID_6_)" fill="#199438" d="M-834.173,283.014c0,0,21.148-64.107,73.164-111.843l46.988,46.783
			c0,0-38.849,39.491-57.904,90.889L-834.173,283.014z"/>
		<path clip-path="url(#SVGID_6_)" fill="#243777" d="M-771.925,308.843c0,0,14.945-45.25,57.904-90.889l51.986,52.137
			c0,0-28.5,29.52-42.461,66.638L-771.925,308.843z"/>
		<path clip-path="url(#SVGID_6_)" fill="#E42621" d="M-704.675,336.632c0,0,12.092-34.505,42.641-66.541l45.553,45.367
			c0,0-19.791,20.019-29.363,45.476L-704.675,336.632z"/>
		<path clip-path="url(#SVGID_6_)" fill="#199438" d="M-646.273,360.479c0,0,7.619-22.255,29.496-45.274l51.185,51.33
			c0,0-8.497,9.362-12.999,22.157L-646.273,360.479z"/>
		<path clip-path="url(#SVGID_6_)" fill="#243777" d="M-578.591,388.692c0,0,3.838-11.747,12.999-22.157l47.781,47.565
			L-578.591,388.692z"/>
		<path clip-path="url(#SVGID_6_)" fill="#243777" d="M-926.565,413.38c0,0-2.773-78.967,29.026-156.994l63.596,26.662
			c0,0-25.601,63.596-23.4,130.372L-926.565,413.38z"/>
		<path clip-path="url(#SVGID_6_)" fill="#E42621" d="M-858.573,413.502c0,0-4.958-66.872,24.63-130.454l60.907,25.073
			c0,0-20.642,51.009-18.591,105.422L-858.573,413.502z"/>
		<path clip-path="url(#SVGID_6_)" fill="#199438" d="M-791.626,413.543c0,0-3.484-47.208,18.591-105.422l67.53,28.085
			c0,0-14.935,37.926-13.638,77.297L-791.626,413.543z"/>
		<path clip-path="url(#SVGID_6_)" fill="#243777" d="M-719.345,413.481c0,0-2.02-36.264,13.84-77.275l59.05,24.32
			c0,0-10.551,25.893-9.661,52.894L-719.345,413.481z"/>
		<path clip-path="url(#SVGID_6_)" fill="#E42621" d="M-656.684,413.165c0,0-1.466-23.317,9.862-52.763l66.485,27.653
			c0,0-4.239,11.822-3.508,25.273L-656.684,413.165z"/>
		<path clip-path="url(#SVGID_6_)" fill="#199438" d="M-583.844,413.329c0,0-0.943-12.237,3.508-25.273l61.932,25.486
			L-583.844,413.329z"/>
		<path clip-path="url(#SVGID_6_)" fill="#189439" d="M-893.517,568.957c0,0-32.719-71.757-33.199-155.854l68.826,0.295
			c0,0,0.686,68.421,28.219,129.156L-893.517,568.957z"/>
		<path clip-path="url(#SVGID_6_)" fill="#243674" d="M-830.771,543.103c0,0-30.117-59.771-27.119-129.704l65.741-0.147
			c0,0,0.45,54.924,23.125,104.316L-830.771,543.103z"/>
		<path clip-path="url(#SVGID_6_)" fill="#E42722" d="M-769.024,517.567c0,0-21.247-42.2-23.125-104.316l72.999,0.108
			c0,0,0.715,40.675,16.947,76.485L-769.024,517.567z"/>
		<path clip-path="url(#SVGID_6_)" fill="#189439" d="M-702.396,489.903c0,0-15.714-32.669-16.754-76.544l63.742-0.13
			c0,0,0.159,27.907,11.293,52.466L-702.396,489.903z"/>
		<path clip-path="url(#SVGID_6_)" fill="#243674" d="M-644.734,465.677c0,0-10.259-20.941-11.061-52.421l71.871,0.105
			c0,0,0.605,12.521,6.419,24.646L-644.734,465.677z"/>
		<path clip-path="url(#SVGID_6_)" fill="#E42722" d="M-577.504,438.007c0,0-5.544-10.926-6.419-24.646l66.843-0.152
			L-577.504,438.007z"/>
		<path clip-path="url(#SVGID_6_)" fill="#E42621" d="M-804.205,698.49c0,0-57.307-53.42-89.717-130.419l63.279-25.895
			c0,0,26.639,62.535,74.998,107.811L-804.205,698.49z"/>
		<path clip-path="url(#SVGID_6_)" fill="#199438" d="M-756.448,650.905c0,0-50.362-43.407-74.194-108.729l60.279-25.125
			c0,0,21.293,50.234,60.88,86.946L-756.448,650.905z"/>
		<path clip-path="url(#SVGID_6_)" fill="#243777" d="M-709.483,603.998c0,0-35.542-30.653-60.88-86.946l67.037-27.654
			c0,0,16.119,37.061,44.633,63.754L-709.483,603.998z"/>
		<path clip-path="url(#SVGID_6_)" fill="#E42621" d="M-658.849,553.28c0,0-26.84-24.009-44.477-63.883l58.451-24.349
			c0,0,10.757,25.552,30.312,43.859L-658.849,553.28z"/>
		<path clip-path="url(#SVGID_6_)" fill="#199438" d="M-615.138,509.126c0,0-17.378-15.322-30.078-43.907l65.999-27.227
			c0,0,5.317,11.261,15.263,20.181L-615.138,509.126z"/>
		<path clip-path="url(#SVGID_6_)" fill="#243777" d="M-563.955,458.173c0,0-9.243-7.92-15.263-20.181l61.29-25.55L-563.955,458.173
			z"/>
		<path clip-path="url(#SVGID_6_)" fill="#243777" d="M-672.759,783.896c0,0-73.063-27.301-132.209-85.777l48.338-47.925
			c0,0,48.327,47.368,110.057,70.587L-672.759,783.896z"/>
		<path clip-path="url(#SVGID_6_)" fill="#E42621" d="M-646.964,721.935c0,0-62.859-20.74-109.666-71.74l45.874-46.074
			c0,0,38.722,38.091,89.119,56.776L-646.964,721.935z"/>
		<path clip-path="url(#SVGID_6_)" fill="#199438" d="M-621.637,660.896c0,0-44.368-14.656-89.119-56.776l51.123-50.977
			c0,0,28.945,27.945,65.339,41.634L-621.637,660.896z"/>
		<path clip-path="url(#SVGID_6_)" fill="#243777" d="M-594.39,594.955c0,0-33.834-11.857-65.243-41.812l44.485-44.664
			c0,0,19.628,19.4,44.588,28.789L-594.39,594.955z"/>
		<path clip-path="url(#SVGID_6_)" fill="#E42621" d="M-571.005,537.689c0,0-21.82-7.472-44.395-28.924l50.334-50.188
			c0,0,9.181,8.332,21.724,12.746L-571.005,537.689z"/>
		<path clip-path="url(#SVGID_6_)" fill="#199438" d="M-543.342,471.323c0,0-11.515-3.762-21.724-12.746l46.639-46.854
			L-543.342,471.323z"/>
		<path clip-path="url(#SVGID_6_)" fill="#189439" d="M-518.392,812.527c0,0-77.802,2.729-154.676-28.599l26.268-62.656
			c0,0,62.656,25.221,128.447,23.056L-518.392,812.527z"/>
		<path clip-path="url(#SVGID_6_)" fill="#243674" d="M-518.269,745.536c0,0-65.887,4.889-128.531-24.264l24.699-60.009
			c0,0,50.262,20.336,103.87,18.315L-518.269,745.536z"/>
		<path clip-path="url(#SVGID_6_)" fill="#E42722" d="M-518.231,679.579c0,0-46.511,3.437-103.87-18.315l27.674-66.533
			c0,0,37.364,14.714,76.154,13.437L-518.231,679.579z"/>
		<path clip-path="url(#SVGID_6_)" fill="#189439" d="M-518.292,608.366c0,0-35.729,1.99-76.135-13.636l23.961-58.181
			c0,0,25.511,10.396,52.113,9.52L-518.292,608.366z"/>
		<path clip-path="url(#SVGID_6_)" fill="#243674" d="M-518.603,546.627c0,0-22.973,1.446-51.986-9.715l27.247-65.503
			c0,0,11.647,4.176,24.899,3.455L-518.603,546.627z"/>
		<path clip-path="url(#SVGID_6_)" fill="#E42722" d="M-518.443,474.864c0,0-12.057,0.93-24.899-3.455l25.111-61.018
			L-518.443,474.864z"/>
		<path clip-path="url(#SVGID_6_)" fill="#E42621" d="M-366.525,780.007c0,0-70.365,32.085-152.828,32.555l0.288-67.491
			c0,0,67.093-0.672,126.652-27.673L-366.525,780.007z"/>
		<path clip-path="url(#SVGID_6_)" fill="#199438" d="M-391.88,718.479c0,0-58.611,29.531-127.185,26.591l-0.142-64.465
			c0,0,53.854-0.443,102.289-22.676L-391.88,718.479z"/>
		<path clip-path="url(#SVGID_6_)" fill="#243777" d="M-416.917,657.93c0,0-41.381,20.832-102.289,22.676l0.104-71.584
			c0,0,39.887-0.698,75.002-16.619L-416.917,657.93z"/>
		<path clip-path="url(#SVGID_6_)" fill="#E42621" d="M-444.043,592.593c0,0-32.034,15.407-75.06,16.429l-0.126-62.502
			c0,0,27.366-0.159,51.449-11.075L-444.043,592.593z"/>
		<path clip-path="url(#SVGID_6_)" fill="#199438" d="M-467.799,536.051c0,0-20.538,10.061-51.404,10.845l0.103-70.475
			c0,0,12.277-0.594,24.169-6.297L-467.799,536.051z"/>
		<path clip-path="url(#SVGID_6_)" fill="#243777" d="M-494.932,470.124c0,0-10.714,5.437-24.169,6.297l-0.148-65.547
			L-494.932,470.124z"/>
		<path clip-path="url(#SVGID_6_)" fill="#243777" d="M-239.605,692.179c0,0-52.258,56.064-127.588,87.77l-25.332-61.907
			c0,0,61.176-26.059,105.469-73.37L-239.605,692.179z"/>
		<path clip-path="url(#SVGID_6_)" fill="#E42621" d="M-286.156,645.462c0,0-42.468,49.267-106.369,72.579l-24.578-58.971
			c0,0,49.141-20.829,85.057-59.556L-286.156,645.462z"/>
		<path clip-path="url(#SVGID_6_)" fill="#199438" d="M-332.046,599.515c0,0-29.988,34.769-85.057,59.556l-27.055-65.58
			c0,0,36.256-15.77,62.369-43.662L-332.046,599.515z"/>
		<path clip-path="url(#SVGID_6_)" fill="#243777" d="M-381.666,549.98c0,0-23.486,26.259-62.492,43.51l-23.819-57.182
			c0,0,24.994-10.523,42.903-29.654L-381.666,549.98z"/>
		<path clip-path="url(#SVGID_6_)" fill="#E42621" d="M-424.859,507.219c0,0-14.99,16.997-42.954,29.425l-26.635-64.566
			c0,0,11.017-5.203,19.741-14.931L-424.859,507.219z"/>
		<path clip-path="url(#SVGID_6_)" fill="#199438" d="M-474.707,457.146c0,0-7.746,9.04-19.741,14.931l-24.998-59.96
			L-474.707,457.146z"/>
		<path clip-path="url(#SVGID_6_)" fill="#189439" d="M-155.564,562.804c0,0-26.779,71.657-84.127,129.669l-47.005-47.41
			c0,0,46.458-47.399,69.233-107.94L-155.564,562.804z"/>
		<path clip-path="url(#SVGID_6_)" fill="#243674" d="M-216.334,537.5c0,0-20.337,61.655-70.361,107.563l-45.19-44.987
			c0,0,37.361-37.982,55.687-87.412L-216.334,537.5z"/>
		<path clip-path="url(#SVGID_6_)" fill="#E42722" d="M-276.2,512.663c0,0-14.371,43.518-55.687,87.412l-49.994-50.145
			c0,0,27.408-28.387,40.834-64.085L-276.2,512.663z"/>
		<path clip-path="url(#SVGID_6_)" fill="#189439" d="M-340.874,485.938c0,0-11.63,33.185-41.007,63.993l-43.811-43.63
			c0,0,19.031-19.252,28.238-43.732L-340.874,485.938z"/>
		<path clip-path="url(#SVGID_6_)" fill="#243674" d="M-397.039,463.005c0,0-7.326,21.401-28.369,43.544l-49.223-49.369
			c0,0,8.172-9.003,12.502-21.307L-397.039,463.005z"/>
		<path clip-path="url(#SVGID_6_)" fill="#E42722" d="M-462.128,435.873c0,0-3.69,11.296-12.502,21.307l-45.951-45.743
			L-462.128,435.873z"/>
		<path clip-path="url(#SVGID_6_)" fill="#E42621" d="M-127.979,412.704c0,0,2.668,75.944-27.915,150.986l-61.164-25.643
			c0,0,24.62-61.163,22.505-125.387L-127.979,412.704z"/>
		<path clip-path="url(#SVGID_6_)" fill="#199438" d="M-193.371,412.585c0,0,4.77,64.313-23.688,125.463l-58.576-24.113
			c0,0,19.849-49.059,17.879-101.392L-193.371,412.585z"/>
		<path clip-path="url(#SVGID_6_)" fill="#243777" d="M-257.755,412.543c0,0,3.352,45.404-17.879,101.392l-64.949-27.013
			c0,0,14.365-36.474,13.116-74.341L-257.755,412.543z"/>
		<path clip-path="url(#SVGID_6_)" fill="#E42621" d="M-327.273,412.601c0,0,1.941,34.877-13.311,74.321l-56.789-23.39
			c0,0,10.146-24.902,9.292-50.871L-327.273,412.601z"/>
		<path clip-path="url(#SVGID_6_)" fill="#199438" d="M-387.537,412.906c0,0,1.41,22.429-9.485,50.744l-63.941-26.594
			c0,0,4.079-11.368,3.372-24.309L-387.537,412.906z"/>
		<path clip-path="url(#SVGID_6_)" fill="#243777" d="M-457.591,412.748c0,0,0.906,11.771-3.372,24.309l-59.562-24.513
			L-457.591,412.748z"/>
		<path clip-path="url(#SVGID_6_)" fill="#243777" d="M-160.256,263.744c0,0,31.345,68.737,31.802,149.296l-65.932-0.285
			c0,0-0.654-65.537-27.032-123.72L-160.256,263.744z"/>
		<path clip-path="url(#SVGID_6_)" fill="#E42621" d="M-220.357,288.515c0,0,28.846,57.257,25.971,124.24l-62.973,0.138
			c0,0-0.431-52.604-22.15-99.92L-220.357,288.515z"/>
		<path clip-path="url(#SVGID_6_)" fill="#199438" d="M-279.509,312.973c0,0,20.35,40.425,22.15,99.92l-69.926-0.099
			c0,0-0.684-38.964-16.234-73.265L-279.509,312.973z"/>
		<path clip-path="url(#SVGID_6_)" fill="#243777" d="M-343.333,339.473c0,0,15.053,31.294,16.049,73.321l-61.057,0.122
			c0,0-0.156-26.729-10.822-50.255L-343.333,339.473z"/>
		<path clip-path="url(#SVGID_6_)" fill="#E42621" d="M-398.568,362.678c0,0,9.826,20.063,10.594,50.215l-68.844-0.099
			c0,0-0.583-11.996-6.15-23.61L-398.568,362.678z"/>
		<path clip-path="url(#SVGID_6_)" fill="#199438" d="M-462.968,389.184c0,0,5.311,10.466,6.15,23.61l-64.032,0.146
			L-462.968,389.184z"/>
		<path clip-path="url(#SVGID_6_)" fill="#189439" d="M-246.371,138.413c0,0,55.152,51.414,86.35,125.521l-60.904,24.921
			c0,0-25.64-60.186-72.18-103.761L-246.371,138.413z"/>
		<path clip-path="url(#SVGID_6_)" fill="#243674" d="M-292.335,184.206c0,0,48.475,41.778,71.41,104.648l-58.012,24.184
			c0,0-20.496-48.35-58.598-83.683L-292.335,184.206z"/>
		<path clip-path="url(#SVGID_6_)" fill="#E42722" d="M-337.535,229.355c0,0,34.209,29.502,58.598,83.683l-64.523,26.613
			c0,0-15.512-35.667-42.956-61.359L-337.535,229.355z"/>
		<path clip-path="url(#SVGID_6_)" fill="#189439" d="M-386.267,278.169c0,0,25.833,23.108,42.807,61.482l-56.258,23.438
			c0,0-10.352-24.592-29.171-42.21L-386.267,278.169z"/>
		<path clip-path="url(#SVGID_6_)" fill="#243674" d="M-428.337,320.667c0,0,16.727,14.744,28.953,42.258l-63.524,26.201
			c0,0-5.116-10.836-14.687-19.422L-428.337,320.667z"/>
		<path clip-path="url(#SVGID_6_)" fill="#E42722" d="M-477.595,369.704c0,0,8.893,7.623,14.687,19.422l-58.989,24.592
			L-477.595,369.704z"/>
	</g>
</g>
<g id="bg" display="none">
	<rect display="inline" width="1000" height="1000"/>
</g>
<g id="text">
	<text transform="matrix(1 0 0 1 -83.187 644.8232)"><tspan x="0" y="0" font-family="'Arial-BoldMT'" font-size="523"> </tspan><tspan x="145.306" y="0" fill="#FFFFFF" font-family="'Arial-BoldMT'" font-size="523">R</tspan></text>
	<g opacity="0.6">
		<defs>
			<path id="SVGID_7_" opacity="0.6" d="M473.521,696.992l18.98-63.625l162.166,48.377l-44.877,150.434
				c-20.369,10.755-47.268,17.554-80.681,20.394c-33.418,2.838-65.465-0.313-96.133-9.463
				c-38.978-11.628-70.479-30.045-94.511-55.263c-24.033-25.215-38.739-55.41-44.115-90.582
				c-5.381-35.172-2.662-70.877,8.149-107.112c11.729-39.322,30.289-71.845,55.675-97.561
				c25.387-25.713,56.184-42.053,92.404-49.017c27.631-5.406,59.24-2.805,94.826,7.811c46.26,13.801,79.46,34.412,99.608,61.834
				c20.143,27.426,28.769,59.592,25.879,96.504l-78.954-8.125c0.277-20.113-5.225-37.697-16.511-52.754
				c-11.287-15.052-27.775-25.818-49.464-32.288c-32.877-9.808-62.164-7.042-87.866,8.291
				c-25.707,15.335-44.755,43.783-57.152,85.341c-13.37,44.821-13.572,81.367-0.6,109.643
				c12.971,28.274,35.384,47.163,67.243,56.666c15.759,4.702,32.49,6.285,50.208,4.74c17.713-1.541,33.578-5.083,47.597-10.627
				l14.293-47.912L473.521,696.992z"/>
		</defs>
		<clipPath id="SVGID_8_">
			<use xlink:href="#SVGID_7_"  overflow="visible"/>
		</clipPath>
		<path clip-path="url(#SVGID_8_)" fill="#E52420" d="M766.822,568.563"/>
		<path clip-path="url(#SVGID_8_)" fill="#E52420" d="M772.039,566.746"/>
		<path clip-path="url(#SVGID_8_)" fill="#E52420" d="M767.405,567.162"/>
		<path clip-path="url(#SVGID_8_)" fill="#E52420" d="M748.235,522.721c0,0,20.429,45.084,20.608,97.865l-43.196-0.286
			c0,0-0.328-42.943-17.521-81.102L748.235,522.721z"/>
		<path clip-path="url(#SVGID_8_)" fill="#1A9438" d="M708.817,538.857c0,0,18.815,37.556,16.83,81.442l-41.259-0.007
			c0,0-0.203-34.469-14.36-65.501L708.817,538.857z"/>
		<path clip-path="url(#SVGID_8_)" fill="#263779" d="M670.028,554.792c0,0,13.271,26.517,14.36,65.501l-45.814-0.173
			c0,0-0.39-25.529-10.525-48.027L670.028,554.792z"/>
		<path clip-path="url(#SVGID_8_)" fill="#E42621" d="M628.172,572.057c0,0,9.813,20.525,10.402,48.063l-40.004-0.012
			c0,0-0.061-17.517-7.013-32.944L628.172,572.057z"/>
		<path clip-path="url(#SVGID_8_)" fill="#199438" d="M591.946,587.176c0,0,6.408,13.159,6.865,32.916l-45.105-0.17
			c0,0-0.362-7.86-3.994-15.479L591.946,587.176z"/>
		<path clip-path="url(#SVGID_8_)" fill="#263779" d="M549.712,604.443c0,0,3.464,6.865,3.994,15.479l-41.952-0.002L549.712,604.443
			z"/>
		<path clip-path="url(#SVGID_8_)" fill="#E52420" d="M726.856,476.302"/>
		<path clip-path="url(#SVGID_8_)" fill="#E52420" d="M730.955,472.651"/>
		<path clip-path="url(#SVGID_8_)" fill="#E52420" d="M726.859,474.795"/>
		<path clip-path="url(#SVGID_8_)" fill="#243777" d="M692.371,441.296c0,0,35.89,33.609,56.117,81.981l-39.754,16.159
			c0,0-16.626-39.286-46.91-67.771L692.371,441.296z"/>
		<path clip-path="url(#SVGID_8_)" fill="#E42621" d="M662.329,471.089c0,0,31.544,27.316,46.405,68.348l-37.868,15.679
			c0,0-13.288-31.557-38.08-54.655L662.329,471.089z"/>
		<path clip-path="url(#SVGID_8_)" fill="#199438" d="M632.786,500.46c0,0,22.262,19.29,38.08,54.655l-42.114,17.259
			c0,0-10.06-23.281-27.916-40.077L632.786,500.46z"/>
		<path clip-path="url(#SVGID_8_)" fill="#243777" d="M600.934,532.217c0,0,16.81,15.106,27.818,40.157l-36.719,15.196
			c0,0-6.713-16.051-18.959-27.568L600.934,532.217z"/>
		<path clip-path="url(#SVGID_8_)" fill="#E42621" d="M573.437,559.864c0,0,10.884,9.64,18.812,27.601l-41.461,16.99
			c0,0-3.32-7.076-9.549-12.687L573.437,559.864z"/>
		<path clip-path="url(#SVGID_8_)" fill="#199438" d="M541.238,591.769c0,0,5.789,4.982,9.549,12.687l-38.503,15.946
			L541.238,591.769z"/>
		<path clip-path="url(#SVGID_8_)" fill="#189439" d="M609.498,387.187c0,0,45.933,17.285,83.062,54.165l-30.485,30.083
			c0,0-30.338-29.876-69.144-44.575L609.498,387.187z"/>
		<path clip-path="url(#SVGID_8_)" fill="#243674" d="M593.176,426.135c0,0,39.521,13.141,68.898,45.3l-28.931,28.924
			c0,0-24.308-24.025-55.991-35.856L593.176,426.135z"/>
		<path clip-path="url(#SVGID_8_)" fill="#E42722" d="M577.152,464.502c0,0,27.896,9.286,55.991,35.856l-32.241,31.999
			c0,0-18.172-17.626-41.052-26.293L577.152,464.502z"/>
		<path clip-path="url(#SVGID_8_)" fill="#189439" d="M559.911,505.953c0,0,21.271,7.509,40.991,26.404l-28.057,28.039
			c0,0-12.322-12.238-28.013-18.182L559.911,505.953z"/>
		<path clip-path="url(#SVGID_8_)" fill="#243674" d="M545.113,541.95c0,0,13.719,4.733,27.891,18.265l-31.743,31.504
			c0,0-5.765-5.256-13.65-8.051L545.113,541.95z"/>
		<path clip-path="url(#SVGID_8_)" fill="#E42722" d="M527.61,583.668c0,0,7.241,2.384,13.65,8.051l-29.414,29.412L527.61,583.668z"
			/>
		<path clip-path="url(#SVGID_8_)" fill="#E52420" d="M562.393,367.475"/>
		<path clip-path="url(#SVGID_8_)" fill="#E52420" d="M561.33,366.406"/>
		<path clip-path="url(#SVGID_8_)" fill="#E42621" d="M513.245,369.265c0,0,48.726-1.598,96.821,18.135l-16.542,39.2
			c0,0-39.2-15.887-80.404-14.626L513.245,369.265z"/>
		<path clip-path="url(#SVGID_8_)" fill="#199438" d="M513.071,411.216c0,0,41.267-2.965,80.453,15.384l-15.557,37.543
			c0,0-31.442-12.809-65.019-11.622L513.071,411.216z"/>
		<path clip-path="url(#SVGID_8_)" fill="#243777" d="M512.949,452.521c0,0,29.132-2.082,65.019,11.622l-17.426,41.625
			c0,0-23.378-9.27-47.671-8.525L512.949,452.521z"/>
		<path clip-path="url(#SVGID_8_)" fill="#E42621" d="M512.883,497.117c0,0,22.377-1.193,47.659,8.65l-15.089,36.398
			c0,0-15.963-6.548-32.624-6.037L512.883,497.117z"/>
		<path clip-path="url(#SVGID_8_)" fill="#199438" d="M512.988,535.781c0,0,14.389-0.872,32.539,6.158l-17.155,40.982
			c0,0-7.289-2.633-15.591-2.201L512.988,535.781z"/>
		<path clip-path="url(#SVGID_8_)" fill="#243777" d="M512.781,580.721c0,0,7.554-0.564,15.591,2.201l-15.815,38.176
			L512.781,580.721z"/>
		<path clip-path="url(#SVGID_8_)" fill="#243777" d="M417.635,389.254c0,0,44.109-19.987,95.75-20.162l-0.278,42.263
			c0,0-42.016,0.322-79.351,17.143L417.635,389.254z"/>
		<path clip-path="url(#SVGID_8_)" fill="#E42621" d="M433.422,427.82c0,0,36.747-18.407,79.685-16.466l-0.007,40.369
			c0,0-33.726,0.196-64.087,14.049L433.422,427.82z"/>
		<path clip-path="url(#SVGID_8_)" fill="#199438" d="M449.013,465.772c0,0,25.943-12.984,64.087-14.049l-0.169,44.824
			c0,0-24.979,0.381-46.99,10.299L449.013,465.772z"/>
		<path clip-path="url(#SVGID_8_)" fill="#243777" d="M465.905,506.727c0,0,20.082-9.603,47.025-10.179l-0.012,39.142
			c0,0-17.137,0.059-32.233,6.859L465.905,506.727z"/>
		<path clip-path="url(#SVGID_8_)" fill="#E42621" d="M480.698,542.168c0,0,12.874-6.27,32.205-6.717l-0.168,44.134
			c0,0-7.689,0.354-15.143,3.905L480.698,542.168z"/>
		<path clip-path="url(#SVGID_8_)" fill="#199438" d="M497.593,583.49c0,0,6.716-3.389,15.143-3.905l-0.001,41.045L497.593,583.49z"
			/>
		<path clip-path="url(#SVGID_8_)" fill="#189439" d="M337.164,444.27c0,0,33.039-35.28,80.592-55.165l15.885,39.077
			c0,0-38.621,16.346-66.623,46.116L337.164,444.27z"/>
		<path clip-path="url(#SVGID_8_)" fill="#243674" d="M366.451,473.803c0,0,26.854-31.011,67.189-45.621l15.416,37.228
			c0,0-31.025,13.063-53.731,37.436L366.451,473.803z"/>
		<path clip-path="url(#SVGID_8_)" fill="#E42722" d="M395.325,502.845c0,0,18.963-21.885,53.731-37.436l16.963,41.399
			c0,0-22.888,9.892-39.398,27.443L395.325,502.845z"/>
		<path clip-path="url(#SVGID_8_)" fill="#189439" d="M426.543,534.156c0,0,14.852-16.525,39.477-27.348l14.94,36.098
			c0,0-15.78,6.599-27.104,18.637L426.543,534.156z"/>
		<path clip-path="url(#SVGID_8_)" fill="#243674" d="M453.723,561.188c0,0,9.477-10.697,27.132-18.494l16.702,40.76
			c0,0-6.956,3.263-12.473,9.387L453.723,561.188z"/>
		<path clip-path="url(#SVGID_8_)" fill="#E42722" d="M485.084,592.84c0,0,4.899-5.691,12.473-9.387l15.675,37.85L485.084,592.84z"
			/>
		<path clip-path="url(#SVGID_8_)" fill="#E42621" d="M284.576,525.1c0,0,16.912-44.939,52.995-81.267l29.435,29.827
			c0,0-29.23,29.682-43.614,67.65L284.576,525.1z"/>
		<path clip-path="url(#SVGID_8_)" fill="#199438" d="M322.685,541.07c0,0,12.856-38.669,44.321-67.41l28.299,28.305
			c0,0-23.506,23.783-35.08,54.784L322.685,541.07z"/>
		<path clip-path="url(#SVGID_8_)" fill="#243777" d="M360.225,556.749c0,0,9.084-27.294,35.08-54.784l31.308,31.546
			c0,0-17.244,17.779-25.725,40.166L360.225,556.749z"/>
		<path clip-path="url(#SVGID_8_)" fill="#E42621" d="M400.778,573.618c0,0,7.349-20.812,25.834-40.107l27.434,27.45
			c0,0-11.974,12.057-17.789,27.41L400.778,573.618z"/>
		<path clip-path="url(#SVGID_8_)" fill="#199438" d="M435.999,588.096c0,0,4.631-13.423,17.87-27.288l30.824,31.058
			c0,0-5.143,5.64-7.879,13.355L435.999,588.096z"/>
		<path clip-path="url(#SVGID_8_)" fill="#243777" d="M476.814,605.221c0,0,2.334-7.085,7.879-13.355l28.775,28.778L476.814,605.221
			z"/>
		<path clip-path="url(#SVGID_8_)" fill="#243777" d="M266.826,619.519c0,0-1.566-47.777,17.782-94.938l38.437,16.219
			c0,0-15.577,38.439-14.34,78.842L266.826,619.519z"/>
		<path clip-path="url(#SVGID_8_)" fill="#E42621" d="M307.959,619.688c0,0-2.904-40.466,15.086-78.89l36.813,15.256
			c0,0-12.559,30.831-11.395,63.754L307.959,619.688z"/>
		<path clip-path="url(#SVGID_8_)" fill="#199438" d="M348.463,619.809c0,0-2.041-28.566,11.395-63.754l40.816,17.088
			c0,0-9.089,22.923-8.36,46.742L348.463,619.809z"/>
		<path clip-path="url(#SVGID_8_)" fill="#243777" d="M392.191,619.871c0,0-1.171-21.941,8.482-46.729l35.689,14.797
			c0,0-6.418,15.649-5.919,31.984L392.191,619.871z"/>
		<path clip-path="url(#SVGID_8_)" fill="#E42621" d="M430.102,619.77c0,0-0.854-14.109,6.04-31.907l40.186,16.823
			c0,0-2.582,7.147-2.158,15.286L430.102,619.77z"/>
		<path clip-path="url(#SVGID_8_)" fill="#199438" d="M474.169,619.972c0,0-0.554-7.404,2.158-15.286l37.432,15.507L474.169,619.972
			z"/>
		<path clip-path="url(#SVGID_8_)" fill="#189439" d="M286.6,713.688c0,0-19.691-43.459-19.865-94.336l41.639,0.275
			c0,0,0.319,41.395,16.89,78.178L286.6,713.688z"/>
		<path clip-path="url(#SVGID_8_)" fill="#243674" d="M324.598,698.135c0,0-18.138-36.203-16.225-78.508l39.773,0.004
			c0,0,0.195,33.229,13.844,63.143L324.598,698.135z"/>
		<path clip-path="url(#SVGID_8_)" fill="#E42722" d="M361.99,682.773c0,0-12.796-25.561-13.844-63.143l44.164,0.168
			c0,0,0.374,24.608,10.145,46.296L361.99,682.773z"/>
		<path clip-path="url(#SVGID_8_)" fill="#189439" d="M402.338,666.131c0,0-9.461-19.787-10.027-46.332l38.563,0.012
			c0,0,0.057,16.884,6.759,31.756L402.338,666.131z"/>
		<path clip-path="url(#SVGID_8_)" fill="#243674" d="M437.258,651.555c0,0-6.178-12.684-6.619-31.73l43.481,0.168
			c0,0,0.351,7.574,3.849,14.918L437.258,651.555z"/>
		<path clip-path="url(#SVGID_8_)" fill="#E42722" d="M477.969,634.91c0,0-3.339-6.617-3.849-14.918l40.439,0.002L477.969,634.91z"
			/>
		<path clip-path="url(#SVGID_8_)" fill="#E42621" d="M340.449,792.18c0,0-34.595-32.398-54.093-79.028l38.32-15.576
			c0,0,16.027,37.87,45.222,65.331L340.449,792.18z"/>
		<path clip-path="url(#SVGID_8_)" fill="#199438" d="M369.409,763.459c0,0-30.407-26.332-44.732-65.884l36.504-15.116
			c0,0,12.812,30.422,36.708,52.688L369.409,763.459z"/>
		<path clip-path="url(#SVGID_8_)" fill="#243777" d="M397.889,735.147c0,0-21.458-18.597-36.708-52.688l40.597-16.636
			c0,0,9.698,22.444,26.911,38.634L397.889,735.147z"/>
		<path clip-path="url(#SVGID_8_)" fill="#E42621" d="M428.595,704.535c0,0-16.204-14.563-26.817-38.712l35.396-14.647
			c0,0,6.473,15.473,18.276,26.578L428.595,704.535z"/>
		<path clip-path="url(#SVGID_8_)" fill="#199438" d="M455.101,677.884c0,0-10.492-9.294-18.135-26.605l39.967-16.379
			c0,0,3.201,6.82,9.206,12.23L455.101,677.884z"/>
		<path clip-path="url(#SVGID_8_)" fill="#243777" d="M486.139,647.13c0,0-5.58-4.805-9.206-12.23l37.116-15.371L486.139,647.13z"/>
		<path clip-path="url(#SVGID_8_)" fill="#243777" d="M419.83,843.632c0,0-43.964-16.544-79.502-51.845l29.179-28.796
			c0,0,29.037,28.597,66.183,42.667L419.83,843.632z"/>
		<path clip-path="url(#SVGID_8_)" fill="#E42621" d="M435.451,806.352c0,0-37.828-12.579-65.944-43.36l27.691-27.684
			c0,0,23.267,22.995,53.593,34.319L435.451,806.352z"/>
		<path clip-path="url(#SVGID_8_)" fill="#199438" d="M450.791,769.627c0,0-26.701-8.889-53.593-34.319l30.86-30.628
			c0,0,17.394,16.871,39.293,25.166L450.791,769.627z"/>
		<path clip-path="url(#SVGID_8_)" fill="#243777" d="M467.294,729.951c0,0-20.36-7.188-39.235-25.271l26.854-26.837
			c0,0,11.794,11.713,26.813,17.401L467.294,729.951z"/>
		<path clip-path="url(#SVGID_8_)" fill="#E42621" d="M481.457,695.497c0,0-13.131-4.532-26.695-17.483l30.383-30.154
			c0,0,5.519,5.031,13.066,7.707L481.457,695.497z"/>
		<path clip-path="url(#SVGID_8_)" fill="#199438" d="M498.211,655.566c0,0-6.93-2.282-13.066-7.707l28.155-28.151L498.211,655.566z
			"/>
		<path clip-path="url(#SVGID_8_)" fill="#189439" d="M512.758,861.092c0,0-46.86,1.533-93.114-17.439l15.909-37.699
			c0,0,37.699,15.277,77.324,14.066L512.758,861.092z"/>
		<path clip-path="url(#SVGID_8_)" fill="#243674" d="M512.927,820.748c0,0-39.688,2.852-77.374-14.795l14.958-36.105
			c0,0,30.241,12.318,62.53,11.178L512.927,820.748z"/>
		<path clip-path="url(#SVGID_8_)" fill="#E42722" d="M513.041,781.025c0,0-28.016,2.002-62.53-11.178l16.761-40.029
			c0,0,22.481,8.913,45.846,8.197L513.041,781.025z"/>
		<path clip-path="url(#SVGID_8_)" fill="#189439" d="M513.105,738.135c0,0-21.521,1.148-45.834-8.316l14.511-35.008
			c0,0,15.35,6.297,31.372,5.807L513.105,738.135z"/>
		<path clip-path="url(#SVGID_8_)" fill="#243674" d="M513.004,700.954c0,0-13.838,0.839-31.296-5.925l16.502-39.412
			c0,0,7.008,2.532,14.991,2.117L513.004,700.954z"/>
		<path clip-path="url(#SVGID_8_)" fill="#E42722" d="M513.201,657.734c0,0-7.262,0.543-14.991-2.117l15.21-36.713L513.201,657.734z
			"/>
		<path clip-path="url(#SVGID_8_)" fill="#E42621" d="M604.265,841.721c0,0-42.422,19.224-92.087,19.392l0.27-40.647
			c0,0,40.408-0.311,76.315-16.486L604.265,841.721z"/>
		<path clip-path="url(#SVGID_8_)" fill="#199438" d="M589.081,804.629c0,0-35.339,17.703-76.634,15.836l0.005-38.824
			c0,0,32.436-0.189,61.637-13.512L589.081,804.629z"/>
		<path clip-path="url(#SVGID_8_)" fill="#243777" d="M574.089,768.129c0,0-24.952,12.487-61.637,13.512l0.163-43.111
			c0,0,24.022-0.365,45.193-9.903L574.089,768.129z"/>
		<path clip-path="url(#SVGID_8_)" fill="#E42621" d="M557.844,728.74c0,0-19.314,9.234-45.229,9.789l0.013-37.643
			c0,0,16.479-0.057,30.999-6.597L557.844,728.74z"/>
		<path clip-path="url(#SVGID_8_)" fill="#199438" d="M543.615,694.654c0,0-12.383,6.031-30.972,6.46l0.16-42.444
			c0,0,7.394-0.338,14.563-3.758L543.615,694.654z"/>
		<path clip-path="url(#SVGID_8_)" fill="#243777" d="M527.367,654.912c0,0-6.461,3.26-14.563,3.758l0.002-39.475L527.367,654.912z"
			/>
		<path clip-path="url(#SVGID_8_)" fill="#243777" d="M681.164,788.687c0,0-31.648,33.796-77.201,52.843l-15.215-37.436
			c0,0,36.992-15.656,63.818-44.176L681.164,788.687z"/>
		<path clip-path="url(#SVGID_8_)" fill="#E42621" d="M653.107,760.398c0,0-25.725,29.703-64.359,43.695l-14.765-35.659
			c0,0,29.716-12.513,51.466-35.858L653.107,760.398z"/>
		<path clip-path="url(#SVGID_8_)" fill="#199438" d="M625.449,732.576c0,0-18.165,20.961-51.466,35.858l-16.252-39.656
			c0,0,21.924-9.475,37.738-26.288L625.449,732.576z"/>
		<path clip-path="url(#SVGID_8_)" fill="#243777" d="M595.545,702.582c0,0-14.226,15.83-37.813,26.196l-14.31-34.577
			c0,0,15.114-6.322,25.96-17.854L595.545,702.582z"/>
		<path clip-path="url(#SVGID_8_)" fill="#E42621" d="M569.512,676.688c0,0-9.08,10.249-25.99,17.716l-16-39.043
			c0,0,6.664-3.128,11.946-8.992L569.512,676.688z"/>
		<path clip-path="url(#SVGID_8_)" fill="#199438" d="M539.468,646.369c0,0-4.692,5.451-11.946,8.992l-15.016-36.258
			L539.468,646.369z"/>
		<path clip-path="url(#SVGID_8_)" fill="#189439" d="M732.116,710.648c0,0-16.278,43.25-51.004,78.214l-28.329-28.706
			c0,0,28.133-28.569,41.976-65.109L732.116,710.648z"/>
		<path clip-path="url(#SVGID_8_)" fill="#243674" d="M695.441,695.275c0,0-12.374,37.219-42.658,64.881l-27.236-27.24
			c0,0,22.624-22.893,33.763-52.729L695.441,695.275z"/>
		<path clip-path="url(#SVGID_8_)" fill="#E42722" d="M659.31,680.188c0,0-8.742,26.27-33.763,52.729l-30.133-30.364
			c0,0,16.599-17.11,24.76-38.655L659.31,680.188z"/>
		<path clip-path="url(#SVGID_8_)" fill="#189439" d="M620.279,663.951c0,0-7.074,20.031-24.865,38.601l-26.403-26.42
			c0,0,11.523-11.603,17.119-26.376L620.279,663.951z"/>
		<path clip-path="url(#SVGID_8_)" fill="#243674" d="M586.38,650.018c0,0-4.456,12.919-17.2,26.266l-29.664-29.894
			c0,0,4.949-5.427,7.582-12.854L586.38,650.018z"/>
		<path clip-path="url(#SVGID_8_)" fill="#E42722" d="M547.098,633.535c0,0-2.246,6.818-7.582,12.854l-27.696-27.699
			L547.098,633.535z"/>
	</g>
	<text transform="matrix(1 0 0 1 594.5 645)" fill="#FFFFFF" font-family="'Arial-BoldMT'" font-size="523">B</text>
	<g display="none" opacity="0.6">
		<path display="inline" fill="#E42722" d="M73.496,925.791l13.333,4.228c-2.044,7.433-5.443,12.953-10.197,16.561
			c-4.754,3.608-10.785,5.412-18.094,5.412c-9.044,0-16.477-3.089-22.299-9.268s-8.733-14.625-8.733-25.341
			c0-11.335,2.927-20.139,8.78-26.409c5.854-6.271,13.549-9.407,23.088-9.407c8.331,0,15.098,2.462,20.301,7.386
			c3.097,2.912,5.419,7.093,6.968,12.543l-13.611,3.252c-0.806-3.53-2.484-6.318-5.04-8.362c-2.555-2.044-5.66-3.065-9.314-3.065
			c-5.048,0-9.144,1.812-12.287,5.435c-3.144,3.624-4.715,9.493-4.715,17.606c0,8.61,1.548,14.742,4.646,18.396
			c3.097,3.654,7.123,5.481,12.078,5.481c3.654,0,6.798-1.161,9.431-3.484C70.461,934.432,72.351,930.777,73.496,925.791z"/>
		<path display="inline" fill="#E42722" d="M95.516,925.466c0-4.336,1.068-8.531,3.205-12.589s5.164-7.154,9.082-9.291
			c3.917-2.138,8.292-3.206,13.123-3.206c7.464,0,13.58,2.424,18.35,7.271c4.77,4.848,7.154,10.972,7.154,18.373
			c0,7.464-2.408,13.65-7.224,18.559c-4.816,4.909-10.879,7.363-18.188,7.363c-4.521,0-8.834-1.022-12.938-3.066
			s-7.224-5.04-9.36-8.989C96.584,935.941,95.516,931.133,95.516,925.466z M108.895,926.163c0,4.894,1.161,8.64,3.483,11.241
			c2.323,2.602,5.188,3.902,8.595,3.902c3.406,0,6.264-1.301,8.57-3.902c2.308-2.602,3.461-6.379,3.461-11.335
			c0-4.831-1.153-8.547-3.461-11.148c-2.307-2.602-5.164-3.902-8.57-3.902c-3.407,0-6.271,1.301-8.595,3.902
			C110.056,917.522,108.895,921.27,108.895,926.163z"/>
		<path display="inline" fill="#E42722" d="M156.65,950.83v-68.103h13.054v68.103H156.65z"/>
		<path display="inline" fill="#E42722" d="M180.063,925.466c0-4.336,1.068-8.531,3.205-12.589s5.164-7.154,9.082-9.291
			c3.917-2.138,8.292-3.206,13.123-3.206c7.464,0,13.58,2.424,18.35,7.271c4.77,4.848,7.154,10.972,7.154,18.373
			c0,7.464-2.408,13.65-7.224,18.559c-4.816,4.909-10.879,7.363-18.188,7.363c-4.521,0-8.834-1.022-12.938-3.066
			s-7.224-5.04-9.36-8.989C181.132,935.941,180.063,931.133,180.063,925.466z M193.442,926.163c0,4.894,1.161,8.64,3.483,11.241
			c2.323,2.602,5.188,3.902,8.595,3.902c3.406,0,6.264-1.301,8.57-3.902c2.308-2.602,3.461-6.379,3.461-11.335
			c0-4.831-1.153-8.547-3.461-11.148c-2.307-2.602-5.164-3.902-8.57-3.902c-3.407,0-6.271,1.301-8.595,3.902
			C194.604,917.522,193.442,921.27,193.442,926.163z"/>
		<path display="inline" fill="#E42722" d="M253.694,950.83h-13.054v-49.335h12.125v7.015c2.074-3.313,3.94-5.497,5.598-6.55
			c1.656-1.053,3.537-1.58,5.644-1.58c2.974,0,5.838,0.821,8.595,2.463l-4.042,11.381c-2.199-1.424-4.243-2.137-6.132-2.137
			c-1.828,0-3.376,0.504-4.646,1.51c-1.271,1.007-2.269,2.826-2.996,5.458c-0.729,2.633-1.092,8.146-1.092,16.538V950.83z"/>
		<path display="inline" fill="#E42722" d="M278.223,894.806v-12.078h13.054v12.078H278.223z M278.223,950.83v-49.335h13.054v49.335
			H278.223z"/>
		<path display="inline" fill="#E42722" d="M299.405,950.83v-10.174l18.489-21.229c3.035-3.468,5.28-5.931,6.736-7.387
			c-1.519,0.094-3.516,0.155-5.993,0.187l-17.42,0.093v-10.824h40.787v9.244l-18.861,21.741l-6.643,7.2
			c3.623-0.216,5.868-0.325,6.736-0.325h20.207v11.475H299.405z"/>
		<path display="inline" fill="#E42722" d="M352.225,894.806v-12.078h13.054v12.078H352.225z M352.225,950.83v-49.335h13.054v49.335
			H352.225z"/>
		<path display="inline" fill="#E42722" d="M423.532,950.83h-13.054v-25.179c0-5.326-0.278-8.771-0.836-10.336
			c-0.558-1.563-1.464-2.779-2.718-3.646c-1.255-0.867-2.765-1.301-4.529-1.301c-2.261,0-4.29,0.62-6.086,1.858
			s-3.027,2.88-3.693,4.924s-0.998,5.823-0.998,11.335v22.345h-13.054v-49.335h12.124v7.247c4.305-5.574,9.725-8.362,16.26-8.362
			c2.88,0,5.512,0.52,7.896,1.557c2.385,1.038,4.188,2.362,5.412,3.972c1.224,1.611,2.075,3.438,2.556,5.481
			c0.479,2.044,0.72,4.971,0.72,8.78V950.83z"/>
		<path display="inline" fill="#E42722" d="M435.564,954.082l14.912,1.812c0.247,1.734,0.82,2.927,1.719,3.577
			c1.238,0.929,3.189,1.394,5.854,1.394c3.406,0,5.961-0.511,7.665-1.533c1.145-0.682,2.013-1.781,2.602-3.298
			c0.401-1.085,0.604-3.082,0.604-5.993v-7.2c-3.902,5.327-8.826,7.99-14.772,7.99c-6.628,0-11.877-2.803-15.748-8.408
			c-3.036-4.429-4.553-9.941-4.553-16.538c0-8.269,1.989-14.587,5.97-18.953c3.979-4.367,8.926-6.551,14.842-6.551
			c6.101,0,11.133,2.68,15.098,8.037v-6.922h12.218v44.271c0,5.822-0.48,10.174-1.44,13.054s-2.308,5.141-4.041,6.782
			c-1.735,1.642-4.05,2.927-6.945,3.855c-2.896,0.93-6.558,1.395-10.986,1.395c-8.362,0-14.293-1.434-17.792-4.298
			c-3.5-2.864-5.25-6.496-5.25-10.894C435.518,955.228,435.533,954.701,435.564,954.082z M447.225,925.141
			c0,5.234,1.014,9.066,3.043,11.497c2.027,2.432,4.529,3.647,7.502,3.647c3.189,0,5.884-1.247,8.083-3.74
			c2.199-2.492,3.299-6.186,3.299-11.079c0-5.11-1.054-8.903-3.159-11.382c-2.106-2.477-4.77-3.716-7.99-3.716
			c-3.128,0-5.707,1.216-7.734,3.646C448.238,916.446,447.225,920.154,447.225,925.141z"/>
		<path display="inline" fill="#179439" d="M537.579,950.83v-28.662l-24.946-39.44h16.12l16.026,26.943l15.702-26.943h15.841
			l-25.039,39.533v28.569H537.579z"/>
		<path display="inline" fill="#179439" d="M572.978,925.466c0-4.336,1.068-8.531,3.205-12.589s5.164-7.154,9.082-9.291
			c3.917-2.138,8.292-3.206,13.123-3.206c7.464,0,13.58,2.424,18.35,7.271c4.77,4.848,7.154,10.972,7.154,18.373
			c0,7.464-2.408,13.65-7.224,18.559c-4.816,4.909-10.879,7.363-18.188,7.363c-4.521,0-8.834-1.022-12.938-3.066
			s-7.224-5.04-9.36-8.989C574.046,935.941,572.978,931.133,572.978,925.466z M586.356,926.163c0,4.894,1.161,8.64,3.483,11.241
			c2.323,2.602,5.188,3.902,8.595,3.902c3.406,0,6.264-1.301,8.57-3.902c2.308-2.602,3.461-6.379,3.461-11.335
			c0-4.831-1.153-8.547-3.461-11.148c-2.307-2.602-5.164-3.902-8.57-3.902c-3.407,0-6.271,1.301-8.595,3.902
			C587.518,917.522,586.356,921.27,586.356,926.163z"/>
		<path display="inline" fill="#179439" d="M666.584,950.83v-7.387c-1.797,2.633-4.158,4.708-7.084,6.226
			c-2.927,1.517-6.017,2.276-9.269,2.276c-3.313,0-6.287-0.729-8.919-2.184c-2.633-1.455-4.537-3.499-5.714-6.132
			c-1.178-2.632-1.766-6.271-1.766-10.917v-31.218h13.054v22.67c0,6.938,0.24,11.188,0.721,12.752
			c0.479,1.564,1.354,2.803,2.624,3.716c1.27,0.914,2.881,1.371,4.832,1.371c2.229,0,4.227-0.611,5.992-1.835
			s2.974-2.741,3.624-4.553s0.976-6.248,0.976-13.31v-20.812h13.054v49.335H666.584z"/>
		<path display="inline" fill="#179439" d="M704.724,950.83H691.67v-49.335h12.125v7.015c2.074-3.313,3.94-5.497,5.598-6.55
			c1.656-1.053,3.537-1.58,5.644-1.58c2.974,0,5.838,0.821,8.595,2.463l-4.042,11.381c-2.199-1.424-4.243-2.137-6.132-2.137
			c-1.828,0-3.376,0.504-4.646,1.51c-1.271,1.007-2.269,2.826-2.996,5.458c-0.729,2.633-1.092,8.146-1.092,16.538V950.83z"/>
		<path display="inline" fill="#233673" d="M755.359,950.83v-68.103h13.75v68.103H755.359z"/>
		<path display="inline" fill="#233673" d="M827.364,950.83h-12.125v-7.247c-2.014,2.818-4.39,4.917-7.131,6.295
			s-5.505,2.067-8.292,2.067c-5.668,0-10.522-2.284-14.563-6.853c-4.042-4.567-6.063-10.939-6.063-19.116
			c0-8.361,1.966-14.718,5.899-19.069c3.933-4.351,8.903-6.527,14.912-6.527c5.512,0,10.282,2.293,14.308,6.876v-24.528h13.055
			V950.83z M792.522,925.094c0,5.266,0.728,9.075,2.184,11.429c2.105,3.406,5.048,5.109,8.826,5.109
			c3.004,0,5.559-1.277,7.665-3.832c2.106-2.556,3.159-6.372,3.159-11.451c0-5.668-1.021-9.748-3.066-12.241
			c-2.044-2.492-4.661-3.739-7.851-3.739c-3.097,0-5.69,1.23-7.781,3.693C793.568,916.523,792.522,920.201,792.522,925.094z"/>
		<path display="inline" fill="#233673" d="M868.802,935.128l13.008,2.184c-1.673,4.77-4.313,8.401-7.921,10.894
			c-3.608,2.493-8.122,3.74-13.542,3.74c-8.578,0-14.928-2.803-19.046-8.408c-3.252-4.49-4.878-10.158-4.878-17.003
			c0-8.176,2.137-14.579,6.411-19.209c4.273-4.63,9.678-6.945,16.212-6.945c7.34,0,13.131,2.424,17.374,7.271
			c4.243,4.848,6.271,12.272,6.086,22.275h-32.704c0.093,3.871,1.146,6.883,3.159,9.035c2.013,2.153,4.521,3.229,7.525,3.229
			c2.044,0,3.763-0.558,5.156-1.672C867.036,939.402,868.089,937.606,868.802,935.128z M869.545,921.936
			c-0.093-3.778-1.068-6.65-2.927-8.617s-4.119-2.95-6.782-2.95c-2.85,0-5.203,1.038-7.061,3.112
			c-1.858,2.075-2.772,4.894-2.741,8.455H869.545z"/>
		<path display="inline" fill="#233673" d="M902.899,916.547l-11.846-2.138c1.331-4.769,3.624-8.299,6.875-10.591
			c3.252-2.292,8.084-3.438,14.494-3.438c5.822,0,10.158,0.69,13.008,2.067c2.849,1.379,4.854,3.129,6.016,5.25
			s1.742,6.016,1.742,11.683l-0.14,15.237c0,4.337,0.209,7.534,0.627,9.593c0.418,2.061,1.2,4.267,2.346,6.62h-12.914
			c-0.341-0.866-0.759-2.152-1.254-3.855c-0.217-0.774-0.372-1.285-0.465-1.533c-2.229,2.168-4.615,3.794-7.154,4.878
			c-2.539,1.083-5.249,1.626-8.129,1.626c-5.08,0-9.082-1.378-12.009-4.135c-2.927-2.756-4.39-6.24-4.39-10.452
			c0-2.787,0.665-5.272,1.997-7.456c1.331-2.184,3.197-3.855,5.598-5.018c2.399-1.161,5.86-2.175,10.383-3.042
			c6.101-1.146,10.328-2.214,12.683-3.206v-1.301c0-2.508-0.62-4.297-1.858-5.365c-1.239-1.068-3.577-1.603-7.015-1.603
			c-2.323,0-4.135,0.457-5.436,1.37C904.758,912.652,903.705,914.255,902.899,916.547z M920.367,927.138
			c-1.673,0.558-4.32,1.225-7.944,1.998c-3.623,0.774-5.992,1.533-7.107,2.276c-1.703,1.208-2.555,2.741-2.555,4.599
			c0,1.828,0.681,3.407,2.044,4.738c1.362,1.332,3.097,1.998,5.203,1.998c2.353,0,4.599-0.773,6.735-2.323
			c1.579-1.176,2.617-2.616,3.112-4.32c0.341-1.114,0.512-3.235,0.512-6.364V927.138z"/>
		<path display="inline" fill="#233673" d="M941.457,936.754l13.101-1.997c0.558,2.54,1.688,4.468,3.392,5.783
			c1.702,1.317,4.088,1.975,7.153,1.975c3.376,0,5.915-0.619,7.619-1.858c1.146-0.866,1.719-2.027,1.719-3.483
			c0-0.991-0.311-1.813-0.93-2.463c-0.65-0.619-2.106-1.191-4.366-1.719c-10.53-2.322-17.204-4.443-20.022-6.364
			c-3.902-2.663-5.853-6.364-5.853-11.103c0-4.273,1.688-7.866,5.063-10.777c3.375-2.911,8.609-4.367,15.701-4.367
			c6.751,0,11.769,1.1,15.052,3.299c3.282,2.199,5.543,5.451,6.782,9.755l-12.311,2.276c-0.527-1.92-1.525-3.391-2.996-4.413
			c-1.472-1.021-3.57-1.533-6.295-1.533c-3.438,0-5.899,0.481-7.387,1.44c-0.991,0.682-1.486,1.564-1.486,2.648
			c0,0.929,0.434,1.719,1.301,2.369c1.177,0.867,5.241,2.09,12.194,3.67c6.952,1.579,11.807,3.515,14.563,5.807
			c2.726,2.322,4.088,5.56,4.088,9.709c0,4.521-1.889,8.408-5.667,11.66c-3.779,3.252-9.369,4.878-16.771,4.878
			c-6.721,0-12.039-1.362-15.957-4.088S942.665,941.431,941.457,936.754z"/>
	</g>
</g>
</svg>
